<?xml version="1.0" encoding="utf-8"?>
<!-- Generator: Adobe Illustrator 22.0.1, SVG Export Plug-In . SVG Version: 6.00 Build 0)  -->
<svg version="1.1" id="icon" xmlns="http://www.w3.org/2000/svg" xmlns:xlink="http://www.w3.org/1999/xlink" x="0px" y="0px"
	 viewBox="0 0 20 20" enable-background="new 0 0 20 20" xml:space="preserve">
<path d="M1.8,14.8h5.5l2.7,4.7l2.7-4.7h5.7l-2.8-4.9l2.7-4.7h-5.5l-2.7-4.7l0,0L7.3,5.2H1.6l2.8,4.9L1.8,14.8z M3.7,13.7l1.5-2.5
	l0.7,1.1l0.8,1.3H3.7z M9.9,17.3l-1.5-2.5H10h1.3L9.9,17.3z M16.4,13.7h-3.1l0.8-1.3l0.8-1.3L16.4,13.7z M16.3,6.3l-1.5,2.5
	l-0.7-1.1l-0.8-1.3H16.3L16.3,6.3z M10.1,2.7l1.5,2.5H9.9H8.7L10.1,2.7z M8,6.3h1.9h2.2l1.1,1.9l1,1.7l-1.1,1.9L12,13.7h-1.9H7.9
	l-1.1-1.9l-1-1.7l1.1-1.9L8,6.3z M3.6,6.3h3.1L6,7.7L5.2,9L3.6,6.3z"/>
</svg>
