<?xml version="1.0" encoding="utf-8"?>
<!-- Generator: Adobe Illustrator 22.0.1, SVG Export Plug-In . SVG Version: 6.00 Build 0)  -->
<svg version="1.1" id="icon" xmlns="http://www.w3.org/2000/svg" xmlns:xlink="http://www.w3.org/1999/xlink" x="0px" y="0px"
	 viewBox="0 0 20 20" enable-background="new 0 0 20 20" xml:space="preserve">
<g>
	<g>
		<path d="M17.6,15.4l-3.7-3.7c-0.5,0.9-1.3,1.6-2.1,2.1l3.7,3.7c0.6,0.6,1.5,0.6,2.1,0C18.1,17,18.1,16,17.6,15.4z"/>
		<path d="M14,8c0-3.3-2.7-6-6-6C4.7,2,2,4.7,2,8s2.7,6,6,6C11.3,14,14,11.3,14,8z M8,12.5c-2.5,0-4.5-2-4.5-4.5s2-4.5,4.5-4.5
			c2.5,0,4.5,2,4.5,4.5S10.5,12.5,8,12.5z"/>
		<path d="M4.5,8h1c0-1.4,1.1-2.5,2.5-2.5v-1C6.1,4.5,4.5,6.1,4.5,8z"/>
	</g>
</g>
</svg>
