<?xml version="1.0" encoding="utf-8"?>
<!-- Generator: Adobe Illustrator 22.0.1, SVG Export Plug-In . SVG Version: 6.00 Build 0)  -->
<svg version="1.1" id="icon" xmlns="http://www.w3.org/2000/svg" xmlns:xlink="http://www.w3.org/1999/xlink" x="0px" y="0px"
	 viewBox="0 0 20 20" enable-background="new 0 0 20 20" xml:space="preserve">
<g transform="translate(0,-952.36218)">
	<path d="M10.4,953.5v7.9c0,0.3,0.3,0.6,0.6,0.6h7.8c0.3,0,0.6-0.3,0.6-0.6c0-4.7-3.8-8.5-8.5-8.5C10.7,952.9,10.4,953.2,10.4,953.5
		z M11.7,954.1c3.5,0.3,6.3,3.1,6.6,6.6h-6.6V954.1z M9.2,954.5c-4.8,0-8.7,3.9-8.7,8.7s3.9,8.7,8.7,8.7s8.7-3.9,8.7-8.7
		c0-0.3-0.3-0.6-0.6-0.6H9.8v-7.4C9.8,954.8,9.5,954.5,9.2,954.5L9.2,954.5z M8.6,955.8v7.4c0,0.3,0.3,0.6,0.6,0.6h7.4
		c-0.3,3.8-3.5,6.8-7.4,6.8c-4.1,0-7.4-3.3-7.4-7.4C1.7,959.3,4.7,956.1,8.6,955.8L8.6,955.8z"/>
</g>
</svg>
