<?xml version="1.0" encoding="utf-8"?>
<!-- Generator: Adobe Illustrator 22.0.1, SVG Export Plug-In . SVG Version: 6.00 Build 0)  -->
<svg version="1.1" id="icon" xmlns="http://www.w3.org/2000/svg" xmlns:xlink="http://www.w3.org/1999/xlink" x="0px" y="0px"
	 viewBox="0 0 20 20" enable-background="new 0 0 20 20" xml:space="preserve">
<path fill="#010101" d="M7.3,7.8c0.7-1.6,1.7-3,3.1-3.9c-0.2-0.8-0.2-1.7-0.2-2.7c-0.3,0.1-0.7,0.3-1,0.6C8.8,2,8.6,2.4,8.3,2.6
	C8,2.8,7.8,3.2,7.6,3.4C6.6,4.5,6.2,5.9,6,7.3C6.5,7.4,6.9,7.6,7.3,7.8z"/>
<path fill="#010101" d="M18,13.9c-1.3,0.2-3.2,0.2-5.1-1.2c-0.1-0.1-0.2-0.1-0.3-0.2c1.4-1.2,2.3-2.8,2.7-4.5c0-0.1,0-0.2,0.1-0.3
	c0.3-1.8,1.4-3.5,2.8-4.6c-0.3-0.1-0.8-0.2-1.2-0.2c-0.3,0-0.8-0.1-1.2-0.1c-0.3,0-0.7,0-1,0.1c-3.4,0.5-6,2.8-6.9,5.9
	C6.4,8,4.9,7.6,2.9,7.9c-2.4,0.2-2.2,2.7-2.2,2.7s0.9-0.5,2,0c0.9,0.5,1.2,1.4,1.2,1.4c0.6,3.8,3.9,5.5,6.4,5.5
	c2.3,0,3.8-1.2,3.8-1.2l0.8,1.7c0,0,0.3,1.3,2,0.5c1.6-0.8,2.4-2.5,2.4-3.9C19.2,13.9,18.9,13.8,18,13.9z"/>
</svg>
