<?xml version="1.0" encoding="utf-8"?>
<!-- Generator: Adobe Illustrator 22.0.1, SVG Export Plug-In . SVG Version: 6.00 Build 0)  -->
<svg version="1.1" id="Layer_1" xmlns="http://www.w3.org/2000/svg" xmlns:xlink="http://www.w3.org/1999/xlink" x="0px" y="0px"
	 viewBox="0 0 20 20" enable-background="new 0 0 20 20" xml:space="preserve">
<g id="command">
	<path d="M4.6,0.5c-2.3,0-4.1,1.8-4.1,4.1s1.8,4.1,4.1,4.1H6v2.7H4.6c-2.3,0-4.1,1.8-4.1,4.1s1.8,4.1,4.1,4.1s4.1-1.8,4.1-4.1V14
		h2.7v1.4c0,2.3,1.8,4.1,4.1,4.1s4.1-1.8,4.1-4.1s-1.8-4.1-4.1-4.1H14V8.7h1.4c2.3,0,4.1-1.8,4.1-4.1s-1.8-4.1-4.1-4.1
		s-4.1,1.8-4.1,4.1V6H8.7V4.6C8.7,2.3,6.9,0.5,4.6,0.5z M4.6,3.2C5.3,3.2,6,3.8,6,4.6V6H4.6C3.8,6,3.2,5.3,3.2,4.6S3.8,3.2,4.6,3.2z
		 M15.5,3.2c0.8,0,1.4,0.6,1.4,1.4S16.3,6,15.5,6h-1.4V4.6C14.1,3.8,14.8,3.2,15.5,3.2z M8.7,8.7h2.7v2.7H8.7V8.7z M4.6,14.1H6v1.4
		c0,0.8-0.6,1.4-1.4,1.4s-1.4-0.6-1.4-1.4S3.8,14.1,4.6,14.1z M14.1,14.1h1.4c0.8,0,1.4,0.6,1.4,1.4s-0.6,1.4-1.4,1.4
		s-1.4-0.6-1.4-1.4V14.1z"/>
</g>
</svg>
