<?xml version="1.0" encoding="utf-8"?>
<!-- Generator: Adobe Illustrator 22.0.1, SVG Export Plug-In . SVG Version: 6.00 Build 0)  -->
<svg version="1.1" id="icon" xmlns="http://www.w3.org/2000/svg" xmlns:xlink="http://www.w3.org/1999/xlink" x="0px" y="0px"
	 viewBox="0 0 20 20" enable-background="new 0 0 20 20" xml:space="preserve">
<path d="M13.7,8.8L13.7,8.8c-0.6,0-1.1,0.5-1.1,1.1l0,0c0,0.6,0.5,1.1,1.1,1.1c0.6,0,1.1-0.5,1.1-1.1C14.8,9.3,14.3,8.8,13.7,8.8z"
	/>
<path d="M10,2c-4.4,0-8,3.6-8,8v0c0,4.4,3.6,8,8,8c4.4,0,8-3.6,8-8C18,5.6,14.4,2,10,2z M7.4,9.9c0,0.6-0.5,1.1-1.1,1.1
	c-0.6,0-1.1-0.5-1.1-1.1c0-0.6,0.5-1.1,1.1-1.1c0,0,0,0,0,0C6.9,8.8,7.4,9.3,7.4,9.9L7.4,9.9z M13.7,13.8c-2.3-0.1-3.1-1.2-3.7-2.8
	c0-3-1.3-4.8-4-4.8C4.9,6.2,3.9,6.9,3.1,8C4,4.9,6.8,2.8,10,2.8v0c4,0,7.2,3.2,7.2,7.2c0,0.4,0,0.9-0.1,1.3
	C16.1,13.4,14.8,13.8,13.7,13.8z"/>
</svg>
