<?xml version="1.0" encoding="utf-8"?>
<!-- Generator: Adobe Illustrator 22.0.1, SVG Export Plug-In . SVG Version: 6.00 Build 0)  -->
<svg version="1.1" id="Layer_1" xmlns="http://www.w3.org/2000/svg" xmlns:xlink="http://www.w3.org/1999/xlink" x="0px" y="0px"
	 viewBox="0 0 20 20" enable-background="new 0 0 20 20" xml:space="preserve">
<g id="CD">
	<path d="M10,2c4.4,0,8,3.6,8,8s-3.6,8-8,8s-8-3.6-8-8S5.6,2,10,2 M6.5,3.7C5.9,4,5.3,4.4,4.8,4.9s-0.9,1-1.2,1.6l3.8,2.2
		c0,0.1-0.1,0.2-0.1,0.3l0,0l0,0c0,0.1,0,0.1-0.1,0.2v0.1c0,0.1,0,0.2,0,0.3l0,0v0.1c0,0.1,0,0.1,0,0.2c0,1.6,1.3,2.9,2.9,2.9
		c0.1,0,0.2,0,0.3,0l0,0c0.1,0,0.2,0,0.2,0c0.1,0,0.2,0,0.3-0.1c0.1,0,0.2-0.1,0.3-0.1l0,0c0,0,0.1,0,0.1-0.1l2.1,3.7
		c0.6-0.3,1.1-0.7,1.6-1.2s0.9-1,1.2-1.6l-3.7-2.1c0-0.1,0.1-0.1,0.1-0.2l0,0c0-0.1,0.1-0.2,0.1-0.2c0-0.1,0.1-0.2,0.1-0.3l0,0v-0.1
		v-0.1c0-0.1,0-0.1,0-0.2c0-0.1,0-0.1,0-0.2c0-0.1,0-0.2,0-0.3c-0.1-1.5-1.4-2.6-2.9-2.6c-0.1,0-0.1,0-0.2,0l0,0c-0.1,0-0.1,0-0.2,0
		l0,0c-0.1,0-0.1,0-0.2,0H9.2H9.1c0,0,0,0-0.1,0S8.8,7.2,8.8,7.2c-0.1,0-0.2,0.1-0.2,0.1L6.5,3.7L6.5,3.7z M10,7.9
		c1.2,0,2.1,1,2.1,2.1c0,1.2-1,2.1-2.1,2.1c-1.2,0-2.1-1-2.1-2.1C7.9,8.8,8.8,7.9,10,7.9 M10,8.6c-0.8,0-1.4,0.6-1.4,1.4
		s0.6,1.4,1.4,1.4s1.4-0.6,1.4-1.4S10.8,8.6,10,8.6"/>
</g>
</svg>
