<?xml version="1.0" encoding="utf-8"?>
<!-- Generator: Adobe Illustrator 22.0.1, SVG Export Plug-In . SVG Version: 6.00 Build 0)  -->
<svg version="1.1" id="Layer_1" xmlns="http://www.w3.org/2000/svg" xmlns:xlink="http://www.w3.org/1999/xlink" x="0px" y="0px"
	 viewBox="0 0 20 20" enable-background="new 0 0 20 20" xml:space="preserve">
<g id="hacker">
	<g>
		<path d="M9.9,10.6c3.3,0,7.1-0.7,7.4-1.5c0.3-0.6-4.2-1.6-4.2-1.6C12,8.1,9.9,8.1,9.9,8.1s-2.1,0-3.2-0.5c0,0-4.5,1-4.2,1.6
			C2.9,9.9,6.6,10.6,9.9,10.6z"/>
		<path d="M12.7,6.3c0,0-0.6-3.6-1.1-4.3c-0.4-0.7-1.2,0.8-1.9,0.8s-1-1.1-1.6-1.1c-0.7,0-1.4,4.5-1.4,4.5S10.2,7,12.7,6.3z"/>
		<path d="M6.8,10.8c0,0-0.3,1.4,1.5,1.5c0,0,0.7,0,1.1-0.6c0.1-0.2,0.3-0.3,0.5-0.3h0.1c0.2,0,0.4,0.1,0.5,0.3
			c0.3,0.6,1.1,0.6,1.1,0.6c1.8,0,1.5-1.5,1.5-1.5c-0.8,0.3-2.1,0.2-2.5,0.2l0,0c-0.1,0-0.2,0-0.2,0l0,0H9.5
			C9.5,11,7.8,11.1,6.8,10.8z"/>
		<path d="M6,10.8l-1.4-0.2l-2.4,2.1c0.1,0,0.1,0,0.2,0c1.1,0,3.9,1,3.9,1l-1.5,1.3c1.2,0.2,4.6,2.1,4.6,2.1l0.3-1.3
			C7.1,13.7,6,10.8,6,10.8z"/>
		<path d="M18.3,12.6l-3-2l-1.6,0.2c0.1,0.5-0.2,1.5-0.2,1.5c-4.4,3.4-3.8,6.4-3.8,6.4c1.8-3.5,5.7-4,5.7-4l-1.8-0.8
			C14.9,13,18.3,12.6,18.3,12.6z"/>
	</g>
</g>
</svg>
