<?xml version="1.0" encoding="utf-8"?>
<!-- Generator: Adobe Illustrator 22.0.1, SVG Export Plug-In . SVG Version: 6.00 Build 0)  -->
<svg version="1.1" id="icon" xmlns="http://www.w3.org/2000/svg" xmlns:xlink="http://www.w3.org/1999/xlink" x="0px" y="0px"
	 viewBox="0 0 20 20" enable-background="new 0 0 20 20" xml:space="preserve">
<g id="learn">
	<path d="M5.4,5.2c-3.2,0-4.9,2.4-4.9,4.8s1.7,4.8,4.8,4.8c1.9,0,3.4-1.4,4.8-2.9c1.4,1.6,2.8,2.9,4.8,2.9c3.2,0,4.8-2.4,4.8-4.8
		S18,5.2,14.9,5.2c-1.9,0-3.4,1.4-4.8,2.9C8.8,6.5,7.2,5.2,5.4,5.2z M5.4,7.6c1,0,2.1,1.1,3.2,2.4c-1.1,1.2-2.3,2.4-3.2,2.4
		C3.6,12.4,3,11.1,3,10S3.6,7.6,5.4,7.6z M14.9,7.6c1.8,0,2.4,1.2,2.4,2.4s-0.7,2.4-2.4,2.4c-1,0-2.1-1.1-3.2-2.4
		C12.8,8.8,13.8,7.6,14.9,7.6z"/>
</g>
</svg>
