<?xml version="1.0" encoding="utf-8"?>
<!-- Generator: Adobe Illustrator 22.0.1, SVG Export Plug-In . SVG Version: 6.00 Build 0)  -->
<svg version="1.1" id="icon" xmlns="http://www.w3.org/2000/svg" xmlns:xlink="http://www.w3.org/1999/xlink" x="0px" y="0px"
	 viewBox="0 0 20 20" enable-background="new 0 0 20 20" xml:space="preserve">
<g>
	<g>
		<g>
			<path d="M10,11.6c0.9,0,1.6-0.7,1.6-1.6c0-0.3-0.1-0.7-0.3-0.9C11,8.7,10.5,8.4,10,8.4c-0.5,0-1,0.3-1.3,0.7
				C8.5,9.3,8.4,9.7,8.4,10C8.4,10.9,9.1,11.6,10,11.6z"/>
			<polygon points="13.5,8 13.5,6.7 13.5,6.5 13.3,6.5 12,6.5 12,8 			"/>
			<path d="M10,2c-4.4,0-8,3.6-8,8c0,4.4,3.6,8,8,8c4.4,0,8-3.6,8-8C18,5.6,14.4,2,10,2z M14.5,9.1v3.7c0,1-0.8,1.8-1.8,1.8H7.2
				c-1,0-1.8-0.8-1.8-1.8V9.1V7.2c0-1,0.8-1.8,1.8-1.8h5.6c1,0,1.8,0.8,1.8,1.8V9.1z"/>
			<path d="M12.5,10c0,1.4-1.1,2.5-2.5,2.5S7.5,11.4,7.5,10c0-0.3,0.1-0.6,0.2-0.9H6.3v3.7c0,0.5,0.4,0.9,0.9,0.9h5.6
				c0.5,0,0.9-0.4,0.9-0.9V9.1h-1.4C12.4,9.4,12.5,9.7,12.5,10z"/>
		</g>
	</g>
</g>
</svg>
