<?xml version="1.0" encoding="utf-8"?>
<!-- Generator: Adobe Illustrator 22.0.1, SVG Export Plug-In . SVG Version: 6.00 Build 0)  -->
<svg version="1.1" id="Layer_1" xmlns="http://www.w3.org/2000/svg" xmlns:xlink="http://www.w3.org/1999/xlink" x="0px" y="0px"
	 viewBox="0 0 20 20" enable-background="new 0 0 20 20" xml:space="preserve">
<g id="Layer_27">
	<path d="M10,2c-4.4,0-8,3.6-8,8s3.6,8,8,8s8-3.6,8-8S14.4,2,10,2z M10.7,14.5V16H9.3v-1.4c-1,0-1.9-0.3-2.5-0.6l0.4-1.7
		c0.6,0.3,1.5,0.6,2.4,0.6c0.8,0,1.4-0.3,1.4-0.9c0-0.6-0.5-0.9-1.6-1.3C7.8,10.2,6.8,9.4,6.8,8c0-1.3,0.9-2.3,2.5-2.6V4h1.4v1.3
		c1,0,1.6,0.2,2.1,0.5l-0.4,1.7C12,7.3,11.3,7,10.3,7S9,7.4,9,7.8c0,0.5,0.5,0.8,1.8,1.3c1.7,0.6,2.5,1.4,2.5,2.7
		C13.3,13.1,12.3,14.2,10.7,14.5z"/>
</g>
</svg>
