<?xml version="1.0" encoding="utf-8"?>
<!-- Generator: Adobe Illustrator 22.0.1, SVG Export Plug-In . SVG Version: 6.00 Build 0)  -->
<svg version="1.1" id="icon" xmlns="http://www.w3.org/2000/svg" xmlns:xlink="http://www.w3.org/1999/xlink" x="0px" y="0px"
	 viewBox="0 0 20 20" enable-background="new 0 0 20 20" xml:space="preserve">
<g>
	<path d="M4.5,15.4c0,0-0.2-1.2,0-2.1c-0.4,0-0.8,0.2-1.1,0.5C2.7,14.6,3,17,3,17s2.4,0.3,3.1-0.4c0.3-0.3,0.5-0.7,0.5-1.1
		C5.7,15.6,4.5,15.4,4.5,15.4z"/>
	<path d="M13.2,14.4c0.2-0.4,0.2-0.9,0-1.4c7-6.4,6.1-12.2,6.1-12.2S13.4-0.1,7,6.9c-0.4-0.2-0.9-0.2-1.4,0
		c-0.9,0.4-5.1,3.3-4.8,3.9c0.1,0.3,2,0.1,3.6-0.2c-0.2,0.9,0.6,2.1,1.8,3.3c1.2,1.2,2.4,2.1,3.3,1.8c-0.3,1.6-0.5,3.5-0.2,3.6
		C9.9,19.5,12.8,15.2,13.2,14.4z M13,7c-0.6-0.6-0.6-1.4,0-2c0.6-0.6,1.4-0.6,2,0s0.6,1.4,0,2C14.5,7.5,13.6,7.5,13,7z"/>
</g>
</svg>
