<?xml version="1.0" encoding="utf-8"?>
<!-- Generator: Adobe Illustrator 22.0.1, SVG Export Plug-In . SVG Version: 6.00 Build 0)  -->
<svg version="1.1" id="icon" xmlns="http://www.w3.org/2000/svg" xmlns:xlink="http://www.w3.org/1999/xlink" x="0px" y="0px"
	 viewBox="0 0 20 20" enable-background="new 0 0 20 20" xml:space="preserve">
<path d="M2.7,14.3h4.9l2.4,4.2l2.4-4.2h5.1l-2.5-4.4l2.4-4.2h-4.9l-2.4-4.2v0L7.6,5.7H2.5l2.5,4.4L2.7,14.3z M4.4,13.3l1.3-2.2
	l0.6,1L7,13.3H4.4z M9.9,16.5l-1.3-2.2h1.4h1.2L9.9,16.5z M15.7,13.3h-2.8l0.7-1.2l0.7-1.2L15.7,13.3z M15.6,6.7l-1.3,2.2l-0.6-1
	L13,6.7L15.6,6.7L15.6,6.7z M10.1,3.5l1.3,2.2H9.9H8.8L10.1,3.5z M8.2,6.7h1.7h2l1,1.7l0.9,1.5l-1,1.7l-1,1.7h-1.7h-2l-1-1.7
	l-0.9-1.5l1-1.7L8.2,6.7z M4.3,6.7h2.8L6.4,7.9L5.7,9.1L4.3,6.7z"/>
</svg>
