<?xml version="1.0" encoding="utf-8"?>
<!-- Generator: Adobe Illustrator 22.0.1, SVG Export Plug-In . SVG Version: 6.00 Build 0)  -->
<svg version="1.1" id="Layer_1" xmlns="http://www.w3.org/2000/svg" xmlns:xlink="http://www.w3.org/1999/xlink" x="0px" y="0px"
	 viewBox="0 0 20 20" enable-background="new 0 0 20 20" xml:space="preserve">
<g id="bug-o">
	<path d="M17.5,11.5h-2.3c-0.1-1-0.5-1.9-1.1-2.6l1.8-1.4C16.1,7.3,16.2,7,16,6.7c-0.2-0.2-0.5-0.3-0.8-0.1L13.3,8
		c-0.1-0.1-0.3-0.2-0.4-0.3c0.4-1.3-0.2-2.7-1.4-3.4l0.6-1.2c0.1-0.3,0-0.6-0.2-0.7c-0.3-0.1-0.6,0-0.7,0.2L10.5,4
		c-0.3-0.1-0.6-0.1-1,0L8.8,2.7C8.6,2.5,8.3,2.4,8,2.6C7.8,2.7,7.7,3,7.8,3.2l0.6,1.2c-1.1,0.7-1.7,2-1.3,3.4C6.9,7.8,6.8,7.9,6.7,8
		L4.8,6.5C4.5,6.3,4.2,6.4,4,6.6C3.8,6.9,3.9,7.2,4.1,7.4l1.8,1.4c-0.6,0.8-1,1.7-1.1,2.6H2.5C2.2,11.5,2,11.7,2,12s0.2,0.5,0.5,0.5
		h2.3c0.1,1,0.5,1.9,1.1,2.7l-1.8,1.4c-0.2,0.2-0.3,0.5-0.1,0.8c0.2,0.2,0.5,0.3,0.8,0.1L6.6,16c0.9,0.8,2,1.2,3.2,1.2l0,0H10
		c1.2,0,2.4-0.4,3.4-1.2l1.8,1.5c0.2,0.2,0.6,0.1,0.8-0.1c0.2-0.2,0.1-0.6-0.1-0.8l0,0l-1.8-1.4c0.6-0.8,1-1.7,1.1-2.7h2.3
		c0.3,0,0.5-0.2,0.5-0.5S17.8,11.5,17.5,11.5z M8.1,7.2C8,6.1,8.8,5.2,9.8,5.1c1.1-0.1,2,0.7,2.1,1.7c0,0.1,0,0.3,0,0.4l0,0
		c-0.1-0.1-0.3-0.1-0.4-0.1l0,0C11.3,7,11.1,7,11,7l0,0c-0.2,0-0.3-0.1-0.5-0.1l0,0c-0.2,0-0.3,0-0.5,0s-0.3,0-0.5,0l0,0
		C9.3,6.9,9.2,6.9,9,7l0,0C8.8,7,8.7,7.1,8.5,7.1l0,0C8.4,7.1,8.2,7.2,8.1,7.2L8.1,7.2z M10.4,16.1v-6c0-0.3-0.2-0.5-0.5-0.5
		s-0.5,0.2-0.5,0.5V16c-2.2-0.3-3.8-2.4-3.4-4.7c0.2-1.3,1-2.4,2.1-3h0.1c0.1,0,0.2-0.1,0.2-0.1l0.1-0.1L8.6,8
		c0.9-0.3,1.9-0.3,2.8,0l0.1,0.1l0.1,0.1c0.1,0,0.2,0.1,0.2,0.1h0.1c2,1.1,2.7,3.6,1.7,5.6C13,15.2,11.8,16,10.4,16.1z"/>
</g>
</svg>
