<?xml version="1.0" encoding="utf-8"?>
<!-- Generator: Adobe Illustrator 22.0.1, SVG Export Plug-In . SVG Version: 6.00 Build 0)  -->
<svg version="1.1" id="icon" xmlns="http://www.w3.org/2000/svg" xmlns:xlink="http://www.w3.org/1999/xlink" x="0px" y="0px"
	 viewBox="0 0 20 20" enable-background="new 0 0 20 20" xml:space="preserve">
<g>
	<circle cx="10" cy="10" r="1.9"/>
	<path d="M16.7,3.3C13-0.4,7-0.4,3.3,3.3s-3.7,9.8,0,13.5s9.7,3.7,13.4,0C20.4,13,20.4,7,16.7,3.3z M12,12c-0.9,0.9-2.4,1-3.5,0.4
		l-2.3,5.2c-0.9-0.4-1.6-0.9-2.3-1.6c-0.7-0.7-1.2-1.4-1.6-2.3l5.2-2.4C6.9,10.2,7,8.8,7.9,7.8s2.4-1,3.5-0.4l2.4-5.1
		c0.9,0.4,1.6,0.9,2.3,1.6c0.7,0.7,1.2,1.4,1.6,2.3l-5.2,2.4C13.1,9.6,12.9,11,12,12z"/>
</g>
</svg>
