<?xml version="1.0" encoding="utf-8"?>
<!-- Generator: Adobe Illustrator 22.0.1, SVG Export Plug-In . SVG Version: 6.00 Build 0)  -->
<svg version="1.1" id="Layer_1" xmlns="http://www.w3.org/2000/svg" xmlns:xlink="http://www.w3.org/1999/xlink" x="0px" y="0px"
	 viewBox="0 0 20 20" enable-background="new 0 0 20 20" xml:space="preserve">
<g id="male-question">
	<path d="M11.9,14.4c1.5-1.2,2.3-2.4,2.7-3.8c0.4-0.1,0.6-0.4,0.8-0.8c0.2-0.6,0.1-1.2-0.4-1.4c0-0.4,0.1-0.7,0.1-1.1
		c0.4-3.8-1.3-5.8-5.2-5.6C8.9,1.8,8.3,2.3,8.3,2.3c-2.7-0.5-3.8,2.1-3.6,5c0,0.4,0.1,0.7,0.1,1.1C4.5,8.6,4.4,9.2,4.5,9.8
		c0.1,0.5,0.5,0.7,0.8,0.8c0.5,1.4,1.2,2.6,2.7,3.8c-3.8,1-7.6,2.4-7.6,3.8v0.1h19v-0.1l0,0C19.5,16.8,15.7,15.3,11.9,14.4z
		 M10.6,12.1c-0.1,0.2-0.4,0.2-0.6,0.2s-0.5-0.1-0.6-0.2c-0.1-0.1-0.2-0.4-0.2-0.6c0-0.2,0.1-0.4,0.2-0.6c0.1-0.1,0.4-0.2,0.6-0.2
		s0.5,0.1,0.6,0.2c0.1,0.1,0.2,0.4,0.2,0.6C10.8,11.9,10.7,12,10.6,12.1z M11.1,9.1c-0.2,0.2-0.4,0.5-0.5,0.8v0.4H9.3
		c0-0.5,0-0.8,0.1-1.1C9.5,8.9,9.8,8.6,10,8.3c0.4-0.2,0.5-0.5,0.6-0.6s0.1-0.4,0.1-0.5c0-0.6-0.2-0.8-0.7-0.8
		c-0.2,0-0.5,0.1-0.6,0.2C9.3,6.8,9.2,7,9.2,7.3H7.7c0-0.6,0.2-1.1,0.6-1.4C8.8,5.3,9.4,5,10.1,5s1.2,0.1,1.7,0.5
		c0.4,0.4,0.6,0.8,0.6,1.4c0,0.2-0.1,0.6-0.2,0.8C12,8,11.8,8.2,11.4,8.6L11.1,9.1z"/>
</g>
</svg>
