<?xml version="1.0" encoding="utf-8"?>
<!-- Generator: Adobe Illustrator 22.0.1, SVG Export Plug-In . SVG Version: 6.00 Build 0)  -->
<svg version="1.1" id="Layer_1" xmlns="http://www.w3.org/2000/svg" xmlns:xlink="http://www.w3.org/1999/xlink" x="0px" y="0px"
	 viewBox="0 0 20 20" enable-background="new 0 0 20 20" xml:space="preserve">
<g id="lightbuilb-alt-o">
	<g>
		<path d="M17.4,9.1h-1.3c-0.4,0-0.8,0.3-0.8,0.8c0,0.4,0.3,0.8,0.8,0.8h1.3c0.4,0,0.8-0.3,0.8-0.8C18.2,9.5,17.8,9.1,17.4,9.1z"/>
		<path d="M3.9,10.7c0.4,0,0.8-0.3,0.8-0.8c0-0.4-0.3-0.8-0.8-0.8H2.6c-0.4,0-0.8,0.3-0.8,0.8c0,0.4,0.3,0.8,0.8,0.8H3.9z"/>
		<path d="M9.2,2.5v1.3c0,0.4,0.3,0.8,0.8,0.8s0.8-0.3,0.8-0.8V2.5c0-0.4-0.3-0.8-0.8-0.8S9.2,2.1,9.2,2.5z"/>
		<path d="M15.7,4.1c-0.3-0.3-0.8-0.3-1.1,0L13.7,5c-0.3,0.3-0.3,0.8,0,1.1c0.2,0.2,0.3,0.2,0.5,0.2s0.4-0.1,0.5-0.2l0.9-0.9
			C16,4.9,16,4.4,15.7,4.1z"/>
		<path d="M6.3,13.5c-0.3-0.3-0.8-0.3-1.1,0l-0.9,0.9c-0.3,0.3-0.3,0.8,0,1.1c0.2,0.2,0.3,0.2,0.5,0.2s0.4-0.1,0.5-0.2l0.9-0.9
			C6.6,14.3,6.6,13.8,6.3,13.5z"/>
		<path d="M4.3,5.2l0.9,0.9c0.2,0.2,0.3,0.2,0.5,0.2s0.4-0.1,0.5-0.2c0.3-0.3,0.3-0.8,0-1.1L5.4,4.1C5,3.8,4.6,3.8,4.3,4.1
			C4,4.4,4,4.9,4.3,5.2z"/>
		<path d="M15.7,14.4l-0.9-0.9c-0.3-0.3-0.8-0.3-1.1,0s-0.3,0.8,0,1.1l0.9,0.9c0.2,0.2,0.3,0.2,0.5,0.2s0.4-0.1,0.5-0.2
			C16,15.2,16,14.7,15.7,14.4z"/>
		<path d="M12.5,17.1v-2.3c0-0.5,0.1-1.2,0.6-1.6c0.9-0.9,1.5-2.1,1.5-3.4s-0.5-2.4-1.4-3.2c-0.9-0.9-2.1-1.3-3.4-1.2
			C7.4,5.5,5.6,7.3,5.5,9.6c-0.1,1.3,0.5,2.7,1.4,3.6c0.4,0.4,0.6,1,0.6,1.7v2.3c0,0.6,0.5,1.1,1.1,1.1h2.7
			C11.9,18.2,12.5,17.7,12.5,17.1z M10.9,16.7H9V16h1.9V16.7z M10.9,14.5H9c-0.1-1-0.5-1.8-1.1-2.4c-0.7-0.6-1-1.5-1-2.4
			C7,8.2,8.2,7,9.8,6.9c0.9,0,1.7,0.2,2.3,0.8S13,9,13,9.8c0,0.9-0.4,1.7-1,2.3C11.4,12.7,11,13.5,10.9,14.5
			C11,14.5,10.9,14.5,10.9,14.5z"/>
	</g>
</g>
</svg>
