<?xml version="1.0" encoding="utf-8"?>
<!-- Generator: Adobe Illustrator 22.0.1, SVG Export Plug-In . SVG Version: 6.00 Build 0)  -->
<svg version="1.1" id="Layer_1" xmlns="http://www.w3.org/2000/svg" xmlns:xlink="http://www.w3.org/1999/xlink" x="0px" y="0px"
	 viewBox="0 0 20 20" enable-background="new 0 0 20 20" xml:space="preserve">
<g id="female-question">
	<path d="M12,14.8c3-0.5,5-2.5,5-2.5s-1.5-3-1.5-5.5c0-3.9-2.5-5.9-5.5-5.9l0,0c-3,0-5.5,2-5.5,5.9c0,2.5-1.5,5.5-1.5,5.5s2,2,5,2.5
		c-4.4,1.4-7.5,3-7.5,3.9v0.4h19v-0.4l0,0C19.5,17.8,16.4,16.2,12,14.8z M10.6,12.3c-0.1,0.1-0.4,0.2-0.6,0.2s-0.5-0.1-0.6-0.2
		c-0.1-0.1-0.2-0.4-0.2-0.6c0-0.2,0.1-0.5,0.2-0.6c0.1-0.1,0.4-0.2,0.6-0.2s0.5,0.1,0.6,0.2c0.1,0.1,0.2,0.4,0.2,0.6
		C10.8,12,10.8,12.2,10.6,12.3z M11.2,8.9c-0.2,0.2-0.5,0.6-0.5,1v0.4H9.3c0-0.5,0.1-0.9,0.2-1.2c0.1-0.4,0.4-0.6,0.7-0.8
		c0.4-0.2,0.6-0.5,0.6-0.7c0.1-0.2,0.1-0.4,0.1-0.6c0-0.6-0.2-1-0.8-1C9.9,5.9,9.6,6,9.5,6.1C9.4,6.3,9.3,6.5,9.3,6.9H7.6
		c0-0.7,0.2-1.2,0.7-1.7c0.5-0.4,1.1-0.6,1.8-0.6s1.3,0.2,1.8,0.6s0.6,1,0.6,1.5c0,0.4-0.1,0.6-0.2,0.8c-0.1,0.2-0.4,0.6-0.7,1
		L11.2,8.9z"/>
</g>
</svg>
