<?xml version="1.0" encoding="utf-8"?>
<!-- Generator: Adobe Illustrator 22.0.1, SVG Export Plug-In . SVG Version: 6.00 Build 0)  -->
<svg version="1.1" id="icon" xmlns="http://www.w3.org/2000/svg" xmlns:xlink="http://www.w3.org/1999/xlink" x="0px" y="0px"
	 viewBox="0 0 20 20" enable-background="new 0 0 20 20" xml:space="preserve">
<path d="M10,1.1L10,1.1c-0.2,0-0.4,0-0.7,0c3.9,0.3,7.1,3.6,7.1,7.5c0,4.2-3.5,7.6-7.7,7.6c-3.9,0-7.3-3-7.7-7C1,9.6,1,9.8,1,10
	c0,4.9,4,8.9,9,8.9l0,0c4.9,0,9-4,9-8.9l0,0C19,5,14.9,1.1,10,1.1z"/>
<polygon points="6.8,8.5 8.3,10.9 8.4,8.2 11.1,7.5 8.5,6.5 8.8,3.7 7.1,5.8 4.5,4.8 6,7.1 4.2,9.2 "/>
</svg>
