<?xml version="1.0" encoding="utf-8"?>
<!-- Generator: Adobe Illustrator 22.0.1, SVG Export Plug-In . SVG Version: 6.00 Build 0)  -->
<svg version="1.1" id="icon" xmlns="http://www.w3.org/2000/svg" xmlns:xlink="http://www.w3.org/1999/xlink" x="0px" y="0px"
	 viewBox="0 0 20 20" enable-background="new 0 0 20 20" xml:space="preserve">
<g>
	<g>
		<g>
			<path d="M6.4,11.2c0.7,0,1.2,0.5,1.2,1.2h1.2c0-1.3-1.1-2.4-2.4-2.4s-2.4,1.1-2.4,2.4v1.2c0,1.3,1.1,2.4,2.4,2.4s2.4-1.1,2.4-2.4
				H7.6c0,0.7-0.5,1.2-1.2,1.2s-1.2-0.5-1.2-1.2v-1.2C5.2,11.7,5.8,11.2,6.4,11.2z"/>
			<path d="M1.7,17.7V2.3C1.7,2,2,1.7,2.3,1.7h8.9v2.4c0,0.7,0.5,1.2,1.2,1.2h2.4V7h1.2V4.7c0-0.2-0.1-0.3-0.2-0.4l-3.6-3.6
				c-0.1-0.1-0.3-0.2-0.4-0.2H2.3c-1,0-1.8,0.8-1.8,1.8v15.4c0,1,0.8,1.8,1.8,1.8h4.2v-1.2H2.3C2,18.3,1.7,18,1.7,17.7z"/>
			<path d="M17.7,12.4h-1.2c-0.3,0-0.6-0.3-0.6-0.6c0-0.3,0.3-0.6,0.6-0.6h1.2c0.3,0,0.6,0.3,0.6,0.6h1.2c0-1-0.8-1.8-1.8-1.8h-1.2
				c-1,0-1.8,0.8-1.8,1.8s0.8,1.8,1.8,1.8h1.2c0.3,0,0.6,0.3,0.6,0.6c0,0.3-0.3,0.6-0.6,0.6h-1.2c-0.3,0-0.6-0.3-0.6-0.6h-1.2
				c0,1,0.8,1.8,1.8,1.8h1.2c1,0,1.8-0.8,1.8-1.8C19.5,13.2,18.7,12.4,17.7,12.4z"/>
			<path d="M11.2,11.2h1.2c0.3,0,0.6,0.3,0.6,0.6h1.2c0-1-0.8-1.8-1.8-1.8h-1.2c-1,0-1.8,0.8-1.8,1.8s0.8,1.8,1.8,1.8h1.2
				c0.3,0,0.6,0.3,0.6,0.6c0,0.3-0.3,0.6-0.6,0.6h-1.2c-0.3,0-0.6-0.3-0.6-0.6H9.4c0,1,0.8,1.8,1.8,1.8h1.2c1,0,1.8-0.8,1.8-1.8
				s-0.8-1.8-1.8-1.8h-1.2c-0.3,0-0.6-0.3-0.6-0.6C10.6,11.5,10.9,11.2,11.2,11.2z"/>
		</g>
	</g>
</g>
</svg>
