<?xml version="1.0" encoding="utf-8"?>
<!-- Generator: Adobe Illustrator 22.0.1, SVG Export Plug-In . SVG Version: 6.00 Build 0)  -->
<svg version="1.1" id="icon" xmlns="http://www.w3.org/2000/svg" xmlns:xlink="http://www.w3.org/1999/xlink" x="0px" y="0px"
	 viewBox="0 0 20 20" enable-background="new 0 0 20 20" xml:space="preserve">
<g>
	<path d="M18.4,3.9l-1.7-1.6L8.2,5.9C8,5.7,7.8,5.5,7.6,5.3C3.3,1,1.3,0,0.7,0.7C0,1.4,1,3.3,5.3,7.7C5.5,7.8,5.6,8,5.8,8.2
		l-3.6,8.5l1.7,1.7l5.1-7.2c1.4,1.2,2.8,2.4,4,3.3L12,18.4l1.1,1.1l2.2-3.4c0.5,0.3,0.9,0.4,1,0.2c0.1-0.1,0-0.5-0.2-1l3.4-2.2
		L18.4,12l-3.8,1.1c-0.9-1.2-2.1-2.6-3.3-4L18.4,3.9z"/>
</g>
</svg>
