<?xml version="1.0" encoding="utf-8"?>
<!-- Generator: Adobe Illustrator 22.0.1, SVG Export Plug-In . SVG Version: 6.00 Build 0)  -->
<svg version="1.1" id="Layer_1" xmlns="http://www.w3.org/2000/svg" xmlns:xlink="http://www.w3.org/1999/xlink" x="0px" y="0px"
	 viewBox="0 0 20 20" enable-background="new 0 0 20 20" xml:space="preserve">
<g id="android">
	<g>
		<g id="android_1_">
			<path d="M5.5,14.5c0,0.4,0.3,0.8,0.8,0.8h0.8v2.6c0,0.6,0.6,1.1,1.1,1.1s1.1-0.6,1.1-1.1v-2.6h1.5v2.6c0,0.6,0.6,1.1,1.1,1.1
				s1.1-0.6,1.1-1.1v-2.6h0.8c0.4,0,0.8-0.3,0.8-0.8V7H5.5V14.5z M3.6,7C3,7,2.5,7.5,2.5,8.1v5.3c0,0.6,0.6,1.1,1.1,1.1
				s1.1-0.6,1.1-1.1V8.1C4.7,7.5,4.3,7,3.6,7z M16.4,7c-0.6,0-1.1,0.6-1.1,1.1v5.3c0,0.6,0.6,1.1,1.1,1.1c0.6,0,1.1-0.6,1.1-1.1V8.1
				C17.5,7.5,17,7,16.4,7z M12.6,2.7l1-1c0.1-0.1,0.1-0.3,0-0.6C13.5,1,13.3,1,13,1.1l-1.1,1.1c-0.6-0.3-1.2-0.6-1.9-0.6
				c-0.8,0-1.5,0.1-2,0.5L7,1C6.7,1,6.5,1,6.3,1.1c-0.1,0.1-0.1,0.5,0,0.6l1,1c-1,0.8-1.8,2-1.8,3.6h9C14.5,4.7,13.7,3.4,12.6,2.7z
				 M8.5,4.7H7.8V4h0.8V4.7z M12.2,4.7h-0.8V4h0.8V4.7z"/>
		</g>
	</g>
</g>
</svg>
