<?xml version="1.0" encoding="utf-8"?>
<!-- Generator: Adobe Illustrator 22.0.1, SVG Export Plug-In . SVG Version: 6.00 Build 0)  -->
<svg version="1.1" id="Layer_1" xmlns="http://www.w3.org/2000/svg" xmlns:xlink="http://www.w3.org/1999/xlink" x="0px" y="0px"
	 viewBox="0 0 20 20" enable-background="new 0 0 20 20" xml:space="preserve">
<g id="bar-graph-up">
	<g>
		<path d="M16.1,8.3h-2.6c-0.2,0-0.3,0.1-0.3,0.3v8.6c0,0.2,0.1,0.3,0.3,0.3h2.6c0.2,0,0.3-0.1,0.3-0.3V8.6
			C16.5,8.4,16.3,8.3,16.1,8.3z"/>
		<path d="M11.5,10.4H8.9c-0.2,0-0.3,0.1-0.3,0.3v6.5c0,0.2,0.1,0.3,0.3,0.3h2.6c0.2,0,0.3-0.1,0.3-0.3v-6.5
			C11.8,10.5,11.7,10.4,11.5,10.4z"/>
		<path d="M6.8,12.1H4.2c-0.2,0-0.3,0.1-0.3,0.3v4.7c0,0.2,0.1,0.3,0.3,0.3h2.6c0.2,0,0.3-0.1,0.3-0.3v-4.7
			C7.2,12.3,7,12.1,6.8,12.1z"/>
		<path d="M16.5,2.5h-2.3c-0.3,0-0.4,0.2-0.4,0.4s0.2,0.4,0.4,0.4h1c0.1,0,0.1,0.1,0.1,0.2L11.4,7c-0.1,0.1-0.2,0.1-0.3,0L8.4,4.7
			C8.2,4.5,8,4.6,7.8,4.7l-5.6,5.4c-0.2,0.2-0.2,0.4,0,0.6c0.1,0.1,0.2,0.1,0.3,0.1c0.1,0,0.2,0,0.3-0.1L8,5.8
			c0.1-0.1,0.2-0.1,0.3,0L11,8.1c0.2,0.2,0.4,0.1,0.6,0l4.3-3.9c0.1-0.1,0.2,0,0.2,0.1v1c0,0.3,0.2,0.4,0.4,0.4
			c0.3,0,0.4-0.2,0.4-0.4V2.9C16.9,2.7,16.7,2.5,16.5,2.5z"/>
	</g>
</g>
</svg>
