<?xml version="1.0" encoding="utf-8"?>
<!-- Generator: Adobe Illustrator 22.0.1, SVG Export Plug-In . SVG Version: 6.00 Build 0)  -->
<svg version="1.1" id="icon" xmlns="http://www.w3.org/2000/svg" xmlns:xlink="http://www.w3.org/1999/xlink" x="0px" y="0px"
	 viewBox="0 0 20 20" enable-background="new 0 0 20 20" xml:space="preserve">
<path fill="#010101" d="M7.7,8.1c0.6-1.4,1.5-2.6,2.7-3.4c-0.2-0.7-0.2-1.5-0.2-2.3C9.9,2.5,9.6,2.7,9.3,2.9C9,3.1,8.8,3.4,8.5,3.6
	C8.3,3.8,8.1,4.1,7.9,4.3c-0.8,1-1.2,2.2-1.4,3.4C7,7.8,7.3,7.9,7.7,8.1z"/>
<path fill="#010101" d="M16.9,13.4c-1.1,0.2-2.8,0.2-4.4-1c-0.1-0.1-0.2-0.1-0.3-0.2c1.2-1,2-2.4,2.3-3.9c0-0.1,0-0.2,0.1-0.3
	c0.3-1.6,1.2-3,2.4-4c-0.3-0.1-0.7-0.2-1-0.2c-0.3,0-0.7-0.1-1-0.1c-0.3,0-0.6,0-0.9,0.1c-2.9,0.4-5.2,2.4-6,5.1
	C6.9,8.3,5.6,7.9,3.9,8.2C1.8,8.4,2,10.5,2,10.5s0.8-0.4,1.7,0c0.8,0.4,1,1.2,1,1.2c0.5,3.3,3.4,4.8,5.5,4.8c2,0,3.3-1,3.3-1
	l0.7,1.5c0,0,0.3,1.1,1.7,0.4c1.4-0.7,2.1-2.2,2.1-3.4C18,13.4,17.7,13.3,16.9,13.4z"/>
</svg>
