<?xml version="1.0" encoding="utf-8"?>
<!-- Generator: Adobe Illustrator 22.0.1, SVG Export Plug-In . SVG Version: 6.00 Build 0)  -->
<svg version="1.1" id="Layer_1" xmlns="http://www.w3.org/2000/svg" xmlns:xlink="http://www.w3.org/1999/xlink" x="0px" y="0px"
	 viewBox="0 0 20 20" enable-background="new 0 0 20 20" xml:space="preserve">
<g id="male">
	<path d="M11.6,13.7c1.3-1,1.9-2,2.3-3.2c0.3-0.1,0.5-0.3,0.7-0.7c0.2-0.5,0.1-1-0.3-1.2c0-0.3,0.1-0.6,0.1-0.9
		C14.7,4.5,13.3,2.8,10,3C9.1,3.1,8.6,3.5,8.6,3.5c-2.3-0.4-3.2,1.8-3,4.2c0,0.3,0.1,0.6,0.1,0.9C5.4,8.8,5.3,9.3,5.4,9.8
		c0.1,0.4,0.4,0.6,0.7,0.7c0.4,1.2,1,2.2,2.3,3.2c-3.2,0.8-6.4,2-6.4,3.2V17h16v-0.1l0,0C18,15.7,14.8,14.5,11.6,13.7z"/>
</g>
</svg>
