<?xml version="1.0" encoding="utf-8"?>
<!-- Generator: Adobe Illustrator 22.0.1, SVG Export Plug-In . SVG Version: 6.00 Build 0)  -->
<svg version="1.1" id="Layer_1" xmlns="http://www.w3.org/2000/svg" xmlns:xlink="http://www.w3.org/1999/xlink" x="0px" y="0px"
	 viewBox="0 0 20 20" enable-background="new 0 0 20 20" xml:space="preserve">
<g id="Layer_16">
	<g>
		<path d="M17.7,8.5c-0.1-2.8-2.4-5.2-5.3-5.2c-1.9,0-3.6,1.1-4.5,2.5c-0.4,0-0.7-0.1-1.1-0.1c-1.7,0-3.1,1.1-3.6,2.5
			c-1.7,0.5-2.7,1.9-2.7,3.4c0,2,1.5,3.6,3.6,3.6h2.8V14H4.1c-1.3,0-2.4-1.1-2.4-2.4s1.1-2.4,2.4-2.4l0,0l0,0
			c0.1-1.3,1.3-2.4,2.6-2.4c0.6,0,1.2,0.2,1.7,0.6c0.5-1.7,2.1-3,4-3c2.3,0,4.2,1.9,4.2,4.2c0,0.2,0,0.5,0,0.7
			c1.1,0.2,1.8,1.2,1.8,2.3c0,1.3-1.1,2.4-2.4,2.4h-2.8v1.2h2.8c2,0,3.6-1.5,3.6-3.6C19.5,10.3,18.8,9.2,17.7,8.5z"/>
		<path d="M12.5,12l-1.2-1.2L10,9.5c0,0-0.1,0-0.2,0l-1.3,1.3L7.3,12l-0.5,0.5v0.1c0,0,0,0,0,0.1s0.1,0.1,0.1,0.1h1.9v3.7
			c0,0.1,0.1,0.2,0.2,0.2h1.9c0.1,0,0.2-0.1,0.2-0.2v-3.7H13c0.1,0,0.1,0,0.1-0.1s0-0.1,0-0.2L12.5,12z"/>
	</g>
</g>
</svg>
