<?xml version="1.0" encoding="utf-8"?>
<!-- Generator: Adobe Illustrator 22.0.1, SVG Export Plug-In . SVG Version: 6.00 Build 0)  -->
<svg version="1.1" id="icon" xmlns="http://www.w3.org/2000/svg" xmlns:xlink="http://www.w3.org/1999/xlink" x="0px" y="0px"
	 viewBox="0 0 20 20" enable-background="new 0 0 20 20" xml:space="preserve">
<path d="M11.5,0.5L11.5,0.5c-0.3,0-0.5,0.2-0.5,0.5v7.8c0,0.1,0.1,0.3,0.3,0.3c0,0,0,0,0,0H19c0.3,0,0.5-0.2,0.5-0.5c0,0,0,0,0,0
	C19.2,4.2,15.8,0.8,11.5,0.5z M12.9,7.1V2.7C15,3.4,16.6,5,17.3,7.1L12.9,7.1z M16.2,15.5l-4.7-4.5c-0.1-0.1-0.1-0.2,0-0.3
	c0,0,0.1-0.1,0.2-0.1h6.2c0.3,0,0.5,0.2,0.5,0.5c0,0,0,0,0,0c-0.1,1.5-0.6,2.9-1.4,4.2C16.9,15.7,16.5,15.8,16.2,15.5
	C16.3,15.6,16.2,15.6,16.2,15.5z M0.5,11.3C0.3,6.6,3.8,2.7,8.4,2.4h0c0.3,0,0.6,0.3,0.6,0.6v7.9l5.6,5.6c0.2,0.2,0.2,0.6,0,0.9
	c0,0,0,0,0,0c-1.6,1.3-3.5,2.1-5.6,2.1c-0.1,0-0.3,0-0.4,0C4.2,19.2,0.7,15.7,0.5,11.3z"/>
</svg>
