<?xml version="1.0" encoding="utf-8"?>
<!-- Generator: Adobe Illustrator 22.0.1, SVG Export Plug-In . SVG Version: 6.00 Build 0)  -->
<svg version="1.1" id="icon" xmlns="http://www.w3.org/2000/svg" xmlns:xlink="http://www.w3.org/1999/xlink" x="0px" y="0px"
	 viewBox="0 0 20 20" enable-background="new 0 0 20 20" xml:space="preserve">
<g>
	<path d="M4.1,2h11.9C17.1,2,18,2.8,18,4.1v11.9c0,1.2-0.9,2.1-2.1,2.1H4.1C2.9,18,2,17.2,2,15.9V4.1C2,2.8,2.9,2,4.1,2L4.1,2z
		 M13.7,3.8c-0.4,0-0.7,0.3-0.7,0.7v1.7c0,0.4,0.3,0.7,0.7,0.7h1.8c0.4,0,0.7-0.3,0.7-0.7V4.5c0-0.4-0.3-0.7-0.7-0.7H13.7L13.7,3.8z
		 M16.2,8.8h-1.4c0.1,0.4,0.2,0.9,0.2,1.4c0,2.7-2.2,4.8-5,4.8c-2.7,0-5-2.2-5-4.8c0-0.5,0.1-0.9,0.2-1.4H3.8v6.8
		c0,0.3,0.3,0.6,0.6,0.6h11.1c0.3,0,0.6-0.3,0.6-0.6L16.2,8.8L16.2,8.8z M10,6.9c-1.8,0-3.2,1.4-3.2,3.1c0,1.7,1.4,3.1,3.2,3.1
		c1.8,0,3.2-1.4,3.2-3.1S11.8,6.9,10,6.9z"/>
</g>
</svg>
