<?xml version="1.0" encoding="utf-8"?>
<!-- Generator: Adobe Illustrator 22.0.1, SVG Export Plug-In . SVG Version: 6.00 Build 0)  -->
<svg version="1.1" id="Layer_1" xmlns="http://www.w3.org/2000/svg" xmlns:xlink="http://www.w3.org/1999/xlink" x="0px" y="0px"
	 viewBox="0 0 20 20" enable-background="new 0 0 20 20" xml:space="preserve">
<g id="Layer_12">
	<path d="M11.1,8.9L7.9,8.4l-1.6-3L4.8,8.3L1.5,8.9l2.4,2.4l-0.4,3.3l3-1.5l3,1.5l-0.4-3.3L11.1,8.9z M7.7,12.1l-1.4-0.7l-1.4,0.7
		l0.2-1.6L4,9.4l1.6-0.2l0.6-1.3L7,9.3l1.6,0.2l-1.1,1.2L7.7,12.1z"/>
	<g>
		<g>
			<path d="M7,5.6l1.2,2.2l3,0.5l1.2,0.2l-0.9,0.9l-2.1,2.1l0.2,1.7c2.2-1.9,5.5-2.9,8.9-2.4C15.8,7.5,11.6,5.6,7,5.6z"/>
		</g>
	</g>
</g>
</svg>
