<?xml version="1.0" encoding="utf-8"?>
<!-- Generator: Adobe Illustrator 22.0.1, SVG Export Plug-In . SVG Version: 6.00 Build 0)  -->
<svg version="1.1" id="Layer_1" xmlns="http://www.w3.org/2000/svg" xmlns:xlink="http://www.w3.org/1999/xlink" x="0px" y="0px"
	 viewBox="0 0 20 20" enable-background="new 0 0 20 20" xml:space="preserve">
<g id="command-circle">
	<path d="M10,18c-4.4,0-8-3.6-8-8s3.6-8,8-8s8,3.6,8,8S14.4,18,10,18z M10,3.2c-3.8,0-6.8,3.1-6.8,6.8c0,3.8,3.1,6.8,6.8,6.8
		c3.8,0,6.8-3.1,6.8-6.8C16.8,6.2,13.8,3.2,10,3.2z"/>
	<path d="M12.6,10.8h-0.8V9.3h0.8c1,0,1.8-0.8,1.8-1.8s-0.8-1.8-1.8-1.8s-1.8,0.8-1.8,1.8v0.8H9.3V7.4c0-1-0.8-1.8-1.8-1.8
		S5.6,6.4,5.6,7.4s0.8,1.8,1.8,1.8h0.8v1.5H7.4c-1,0-1.8,0.8-1.8,1.8s0.8,1.8,1.8,1.8s1.8-0.8,1.8-1.8v-0.8h1.5v0.8
		c0,1,0.8,1.8,1.8,1.8s1.8-0.8,1.8-1.8C14.4,11.6,13.6,10.8,12.6,10.8z M12.6,8.2h-0.8V7.4c0-0.4,0.3-0.8,0.8-0.8s0.8,0.3,0.8,0.8
		S13,8.2,12.6,8.2z M12.6,13.4c-0.4,0-0.8-0.3-0.8-0.8v-0.8h0.8c0.4,0,0.8,0.3,0.8,0.8C13.4,13,13,13.4,12.6,13.4z M10.8,9.2v1.5
		H9.3V9.2H10.8z M7.4,11.8h0.8v0.8c0,0.4-0.3,0.8-0.8,0.8c-0.4,0-0.8-0.3-0.8-0.8C6.6,12.2,7,11.8,7.4,11.8z M7.4,6.6
		c0.4,0,0.8,0.3,0.8,0.8v0.8H7.4C7,8.2,6.6,7.9,6.6,7.4C6.6,7,7,6.6,7.4,6.6z"/>
</g>
</svg>
