<?xml version="1.0" encoding="utf-8"?>
<!-- Generator: Adobe Illustrator 22.0.1, SVG Export Plug-In . SVG Version: 6.00 Build 0)  -->
<svg version="1.1" id="Layer_1" xmlns="http://www.w3.org/2000/svg" xmlns:xlink="http://www.w3.org/1999/xlink" x="0px" y="0px"
	 viewBox="0 0 20 20" enable-background="new 0 0 20 20" xml:space="preserve">
<g id="cloud">
	<g>
		<path d="M15.8,9.6c-0.3,0-0.5,0-0.7,0.1c0-1.4-1.1-2.6-2.4-2.6c-0.6,0-1.1,0.2-1.5,0.5C10.9,6.1,9.7,5,8.3,5c-1.7,0-3,1.5-3,3.3
			l0,0c-0.1,0-0.3,0-0.4,0c-1.7,0-3,1.5-3,3.3s1.3,3.3,3,3.3h11c1.4,0,2.5-1.2,2.5-2.7C18.2,10.8,17.2,9.6,15.8,9.6z"/>
	</g>
</g>
</svg>
