<?xml version="1.0" encoding="utf-8"?>
<!-- Generator: Adobe Illustrator 22.0.1, SVG Export Plug-In . SVG Version: 6.00 Build 0)  -->
<svg version="1.1" id="icon" xmlns="http://www.w3.org/2000/svg" xmlns:xlink="http://www.w3.org/1999/xlink" x="0px" y="0px"
	 viewBox="0 0 20 20" enable-background="new 0 0 20 20" xml:space="preserve">
<g>
	<path d="M18.6,0.5H1.4c-0.5,0-0.9,0.4-0.9,0.9v17.1c0,0.5,0.4,0.9,0.9,0.9h17.1c0.5,0,0.9-0.4,0.9-0.9V1.4
		C19.5,0.9,19.1,0.5,18.6,0.5z M17.6,17.6H2.4V2.4h15.2L17.6,17.6L17.6,17.6z"/>
	<path d="M11.3,7.2h4c0.2,0,0.4-0.2,0.4-0.4V4.7c0-0.2-0.2-0.4-0.4-0.4h-4c-0.2,0-0.4,0.2-0.4,0.4v2.1C10.9,7,11.1,7.2,11.3,7.2z"/>
	<path d="M4.7,10.9h4c0.2,0,0.4-0.2,0.4-0.4V4.7c0-0.2-0.2-0.4-0.4-0.4h-4c-0.2,0-0.4,0.2-0.4,0.4v5.9C4.3,10.8,4.5,10.9,4.7,10.9z"
		/>
	<path d="M11.3,15.7h4c0.2,0,0.4-0.2,0.4-0.4V9.4c0-0.2-0.2-0.4-0.4-0.4h-4c-0.2,0-0.4,0.2-0.4,0.4v5.9
		C10.9,15.5,11.1,15.7,11.3,15.7z"/>
	<path d="M9.1,13.2c0-0.2-0.2-0.4-0.4-0.4h-4c-0.2,0-0.4,0.2-0.4,0.4v2.5h4.8V13.2z"/>
</g>
</svg>
