<?xml version="1.0" encoding="utf-8"?>
<!-- Generator: Adobe Illustrator 22.0.1, SVG Export Plug-In . SVG Version: 6.00 Build 0)  -->
<svg version="1.1" id="Layer_1" xmlns="http://www.w3.org/2000/svg" xmlns:xlink="http://www.w3.org/1999/xlink" x="0px" y="0px"
	 viewBox="0 0 20 20" enable-background="new 0 0 20 20" xml:space="preserve">
<g id="Layer_28">
	<path d="M10.1,2.9C4.1,2.9,0.5,10,0.5,10s3.6,7.1,9.6,7.1c5.8,0,9.4-7.1,9.4-7.1S15.9,2.9,10.1,2.9z M10,5.2c2.6,0,4.8,2.1,4.8,4.8
		s-2.1,4.8-4.8,4.8S5.2,12.6,5.2,10S7.4,5.2,10,5.2z M10,7.6c-1.3,0-2.4,1.1-2.4,2.4s1.1,2.4,2.4,2.4s2.4-1.1,2.4-2.4
		c0-0.2-0.1-0.5-0.1-0.7C12,9.8,11.7,10,11.2,10C10.5,10,10,9.5,10,8.8c0-0.5,0.2-0.8,0.7-1.1C10.5,7.7,10.2,7.6,10,7.6z"/>
</g>
</svg>
