<?xml version="1.0" encoding="utf-8"?>
<!-- Generator: Adobe Illustrator 22.0.1, SVG Export Plug-In . SVG Version: 6.00 Build 0)  -->
<svg version="1.1" id="Layer_1" xmlns="http://www.w3.org/2000/svg" xmlns:xlink="http://www.w3.org/1999/xlink" x="0px" y="0px"
	 viewBox="0 0 20 20" enable-background="new 0 0 20 20" xml:space="preserve">
<g id="Layer_25">
	<path d="M10,2c-4.4,0-8,3.6-8,8s3.6,8,8,8s8-3.6,8-8S14.4,2,10,2z M10,4c1.3,0,2.5,0.4,3.5,1.1l-8.4,8.4C4.4,12.5,4,11.3,4,10
		C4,6.7,6.7,4,10,4z M14.9,6.5c0.7,1,1.1,2.2,1.1,3.5c0,3.3-2.7,6-6,6c-1.3,0-2.5-0.4-3.5-1.1L14.9,6.5z"/>
</g>
</svg>
