<?xml version="1.0" encoding="utf-8"?>
<!-- Generator: Adobe Illustrator 22.0.1, SVG Export Plug-In . SVG Version: 6.00 Build 0)  -->
<svg version="1.1" id="Layer_1" xmlns="http://www.w3.org/2000/svg" xmlns:xlink="http://www.w3.org/1999/xlink" x="0px" y="0px"
	 viewBox="0 0 20 20" enable-background="new 0 0 20 20" xml:space="preserve">
<g id="documents">
	<g>
		<path d="M16.4,4.6l-2.5-2.5C13.8,2,13.7,2,13.6,2H6.9C6.6,2,6.3,2.2,6.3,2.5v0.9h4.5c0.4,0,0.9,0.2,1.2,0.5l1,0.9
			c0,0,0.1,0.1,0.1,0v-2c0-0.1,0.1-0.1,0.1,0l2.5,2.4v0.1h-2c-0.1,0,0,0.1,0,0.1l1,0.9C15,6.6,15.2,7,15.2,7.5v7.8h0.9
			c0.3,0,0.5-0.2,0.5-0.5v-10C16.5,4.7,16.4,4.6,16.4,4.6z"/>
		<path d="M10.9,4.7H4.1C3.8,4.7,3.5,5,3.5,5.3v12.2C3.5,17.8,3.7,18,4,18h9c0.3,0,0.5-0.2,0.5-0.5v-10c0-0.1,0-0.2-0.1-0.2L11,4.8
			L10.9,4.7z M10.9,8c-0.3,0-0.5-0.2-0.5-0.5v-2c0-0.1,0.1-0.1,0.1,0L13,7.9V8C12.9,8,10.9,8,10.9,8z"/>
	</g>
</g>
</svg>
