<?xml version="1.0" encoding="utf-8"?>
<!-- Generator: Adobe Illustrator 22.0.1, SVG Export Plug-In . SVG Version: 6.00 Build 0)  -->
<svg version="1.1" id="Layer_1" xmlns="http://www.w3.org/2000/svg" xmlns:xlink="http://www.w3.org/1999/xlink" x="0px" y="0px"
	 viewBox="0 0 20 20" enable-background="new 0 0 20 20" xml:space="preserve">
<g id="Layer_25">
	<path d="M10,0.5c-5.2,0-9.5,4.3-9.5,9.5s4.3,9.5,9.5,9.5s9.5-4.3,9.5-9.5S15.2,0.5,10,0.5z M10,2.9c1.5,0,3,0.5,4.2,1.3l-10,10
		C3.4,13,2.9,11.5,2.9,10C2.9,6.1,6.1,2.9,10,2.9z M15.8,5.8c0.8,1.2,1.3,2.6,1.3,4.2c0,3.9-3.2,7.1-7.1,7.1c-1.5,0-3-0.5-4.2-1.3
		L15.8,5.8z"/>
</g>
</svg>
