<?xml version="1.0" encoding="utf-8"?>
<!-- Generator: Adobe Illustrator 22.0.1, SVG Export Plug-In . SVG Version: 6.00 Build 0)  -->
<svg version="1.1" id="Layer_1" xmlns="http://www.w3.org/2000/svg" xmlns:xlink="http://www.w3.org/1999/xlink" x="0px" y="0px"
	 viewBox="0 0 20 20" enable-background="new 0 0 20 20" xml:space="preserve">
<g id="cloud-download">
	<g>
		<path d="M17.7,9.1c-0.1-2.9-2.4-5.2-5.3-5.2c-1.9,0-3.6,1.1-4.5,2.5c-0.4,0-0.7-0.1-1.1-0.1c-1.7,0-3.1,1.1-3.6,2.5
			c-1.7,0.5-2.7,1.9-2.7,3.4c0,2,1.5,3.6,3.6,3.6h2.8v-1.2H4.1c-1.3,0-2.4-1.1-2.4-2.4s1.1-2.4,2.4-2.4l0,0l0,0
			c0.1-1.3,1.3-2.4,2.6-2.4c0.6,0,1.2,0.2,1.7,0.6c0.5-1.7,2.1-3,4-3c2.3,0,4.2,1.9,4.2,4.2c0,0.2,0,0.5,0,0.7
			c1.1,0.2,1.8,1.2,1.8,2.3c0,1.3-1.1,2.4-2.4,2.4h-2.8v1.2h2.8c2,0,3.6-1.5,3.6-3.6C19.5,10.9,18.8,9.8,17.7,9.1z"/>
		<path d="M12.8,12.8h-1.7V9.1c0-0.1-0.1-0.2-0.2-0.2H9.1C8.9,8.9,8.8,9,8.8,9.1v3.7H7.2c-0.1,0-0.1,0-0.1,0.1c0,0,0,0,0,0.1v0.1
			l0.5,0.5l1.2,1.2l1.3,1.3c0,0,0.1,0,0.2,0l1.3-1.3l1.2-1.2l0.5-0.5c0,0,0-0.1,0-0.2C13,12.8,13,12.8,12.8,12.8z"/>
	</g>
</g>
</svg>
