<?xml version="1.0" encoding="utf-8"?>
<!-- Generator: Adobe Illustrator 22.0.1, SVG Export Plug-In . SVG Version: 6.00 Build 0)  -->
<svg version="1.1" id="Layer_1" xmlns="http://www.w3.org/2000/svg" xmlns:xlink="http://www.w3.org/1999/xlink" x="0px" y="0px"
	 viewBox="0 0 20 20" enable-background="new 0 0 20 20" xml:space="preserve">
<g id="silverware">
	<g>
		<path d="M13.3,5.7c0-1.8-1-3.2-2.3-3.2S8.7,3.9,8.7,5.7c0,1.4,0.6,2.6,1.5,3c0.1,0.1,0.2,0.2,0.2,0.4L10.3,11v0.1v0.1l-0.3,6
			c0,0.2,0.1,0.4,0.3,0.4h1.1c0.2,0,0.4-0.2,0.3-0.4l-0.3-6v-0.1V11V9c0-0.2,0.1-0.3,0.2-0.4C12.6,8.2,13.3,7.1,13.3,5.7z"/>
		<path d="M17.4,13.6L17.4,13.6c0-0.1-0.1-0.2-0.1-0.2V2.8c0-0.2-0.2-0.3-0.3-0.2c-1.4,0.5-2.3,9.2-2.2,9.7c0.1,0.4,0.8,0.6,1.2,0.7
			c0.1,0,0.2,0.1,0.2,0.2v0.3v0.1v0.1l-0.6,3.4c0,0.2,0.1,0.4,0.3,0.4h1.4c0.2,0,0.4-0.2,0.4-0.4L17.4,13.6z"/>
		<path d="M7,2.5C6.7,2.6,6.5,2.8,6.5,3v3c0,0.3-0.2,0.5-0.5,0.5l0,0C5.7,6.5,5.5,6.3,5.5,6V3c0-0.3-0.2-0.5-0.4-0.5
			C4.8,2.5,4.5,2.8,4.5,3v3c0,0.3-0.2,0.5-0.5,0.5l0,0C3.7,6.5,3.5,6.3,3.5,6V3c0-0.3-0.2-0.5-0.4-0.5C2.8,2.5,2.5,2.8,2.5,3v3.9
			c0,0.1,0,0.1,0,0.1c0.1,0.5,0.4,1.4,1.9,2l0,0c0,0,0,0,0.1,0.1c0,0.1,0.1,0.1,0.1,0.2l-0.1,1.6c-0.1,0.1-0.1,0.2-0.1,0.3l-0.4,6
			c0,0.2,0.2,0.4,0.4,0.4h1.1c0.2,0,0.4-0.2,0.4-0.4l-0.4-5.9c0-0.1-0.1-0.2-0.1-0.3L5.3,9.4c0-0.1,0-0.1,0.1-0.2l0,0h0.1
			c1.5-0.6,1.8-1.5,1.9-2c0,0,0-0.1,0-0.2V3C7.5,2.8,7.2,2.5,7,2.5z"/>
	</g>
</g>
</svg>
