<?xml version="1.0" encoding="utf-8"?>
<!-- Generator: Adobe Illustrator 22.0.1, SVG Export Plug-In . SVG Version: 6.00 Build 0)  -->
<svg version="1.1" id="Layer_1" xmlns="http://www.w3.org/2000/svg" xmlns:xlink="http://www.w3.org/1999/xlink" x="0px" y="0px"
	 viewBox="0 0 20 20" enable-background="new 0 0 20 20" xml:space="preserve">
<g id="learn">
	<path d="M9.8,13.6L9.8,13.6l-4.7-2.1v1.9c0,0.9,2.1,2.1,4.7,2.1s4.7-1.2,4.7-2.1v-1.9L9.8,13.6z"/>
	<polygon points="9.8,4.5 0.5,8.8 9.8,12.9 19.1,8.8 	"/>
	<path d="M18.8,12.1L18.8,12.1c0.2-0.2,0.3-0.4,0.3-0.7c0-0.3-0.2-0.7-0.6-0.7v-2h-0.2v2c-0.3,0.1-0.6,0.3-0.6,0.7
		c0,0.2,0.1,0.4,0.3,0.6v0.1l-0.7,2.8h1h1L18.8,12.1z"/>
</g>
</svg>
