<?xml version="1.0" encoding="utf-8"?>
<!-- Generator: Adobe Illustrator 22.0.1, SVG Export Plug-In . SVG Version: 6.00 Build 0)  -->
<svg version="1.1" id="icon" xmlns="http://www.w3.org/2000/svg" xmlns:xlink="http://www.w3.org/1999/xlink" x="0px" y="0px"
	 viewBox="0 0 20 20" enable-background="new 0 0 20 20" xml:space="preserve">
<g>
	<path d="M18.4,7.6h-7.2c0,1.5-0.7,2.8-1.7,3.7l2.7,2.7l6.4-6.4C18.4,7.6,18.4,7.6,18.4,7.6z"/>
	<path d="M19.4,8.4l-6.8,6.8c-0.1,0.1-0.2,0.2-0.4,0.2c-0.1,0-0.3-0.1-0.4-0.2L8.7,12c-0.8,0.5-1.6,0.7-2.6,0.7c-0.3,0-0.7,0-1-0.1
		V17c0,0.6,0.5,1,1,1h12.3c0.6,0,1-0.5,1-1V8.8C19.5,8.6,19.5,8.5,19.4,8.4z"/>
</g>
<g>
	<path d="M6.1,3.9C4.4,3.6,2.8,4.7,2.4,6.4C2.3,7.4,2.5,8.3,3.1,9l4.4-4.4C7.1,4.2,6.6,4,6.1,3.9z"/>
	<path d="M3.9,9.7c0.3,0.2,0.7,0.3,1,0.4c1.7,0.3,3.4-0.8,3.7-2.5c0.2-0.8,0-1.6-0.4-2.3L3.9,9.7z"/>
	<path d="M5.5,2c-2.8,0-5,2.3-5,5s2.3,5,5,5s5-2.3,5-5S8.3,2,5.5,2z M4.7,11.2c-0.6-0.1-1.1-0.4-1.6-0.7l0,0L3,10.4
		C1.7,9.5,1,7.9,1.4,6.2c0.4-2.3,2.7-3.8,5-3.4c2.3,0.4,3.8,2.7,3.4,5C9.3,10.1,7,11.6,4.7,11.2z"/>
</g>
</svg>
