<?xml version="1.0" encoding="utf-8"?>
<!-- Generator: Adobe Illustrator 22.0.1, SVG Export Plug-In . SVG Version: 6.00 Build 0)  -->
<svg version="1.1" id="icon" xmlns="http://www.w3.org/2000/svg" xmlns:xlink="http://www.w3.org/1999/xlink" x="0px" y="0px"
	 viewBox="0 0 20 20" enable-background="new 0 0 20 20" xml:space="preserve">
<path d="M10,2.1L10,2.1c-0.2,0-0.4,0-0.6,0c3.5,0.3,6.3,3.2,6.3,6.7c0,3.7-3.1,6.8-6.8,6.8c-3.5,0-6.5-2.7-6.8-6.2C2,9.6,2,9.8,2,10
	c0,4.4,3.6,7.9,8,7.9c0,0,0,0,0,0c4.4,0,8-3.6,8-7.9c0,0,0,0,0,0C18,5.6,14.4,2.1,10,2.1z"/>
<polygon points="7.2,8.7 8.5,10.8 8.6,8.4 11,7.8 8.7,6.9 8.9,4.4 7.4,6.3 5.1,5.4 6.4,7.4 4.8,9.3 "/>
</svg>
