<?xml version="1.0" encoding="utf-8"?>
<!-- Generator: Adobe Illustrator 22.0.1, SVG Export Plug-In . SVG Version: 6.00 Build 0)  -->
<svg version="1.1" id="Layer_1" xmlns="http://www.w3.org/2000/svg" xmlns:xlink="http://www.w3.org/1999/xlink" x="0px" y="0px"
	 viewBox="0 0 20 20" enable-background="new 0 0 20 20" xml:space="preserve">
<g id="music-note-alt">
	<path d="M17.5,2.5C8.1,2.5,6.3,4.4,6.3,4.4V12c-0.3-0.1-0.6-0.2-0.9-0.2c-1.6,0-2.8,1.3-2.8,2.8s1.3,2.8,2.8,2.8s2.8-1.3,2.8-2.8
		V7.2c1.4-0.4,3.7-0.8,7.5-0.9v3.9c-0.4-0.1-0.7-0.2-1-0.2c-1.6,0-2.8,1.3-2.8,2.8s1.3,2.8,2.8,2.8s2.8-1.3,2.8-2.8V2.5z"/>
</g>
</svg>
