<?xml version="1.0" encoding="utf-8"?>
<!-- Generator: Adobe Illustrator 22.0.1, SVG Export Plug-In . SVG Version: 6.00 Build 0)  -->
<svg version="1.1" id="Layer_1" xmlns="http://www.w3.org/2000/svg" xmlns:xlink="http://www.w3.org/1999/xlink" x="0px" y="0px"
	 viewBox="0 0 20 20" enable-background="new 0 0 20 20" xml:space="preserve">
<g id="command">
	<path d="M5.7,2.5c-1.8,0-3.2,1.4-3.2,3.2s1.4,3.2,3.2,3.2h1.1V11H5.7c-1.8,0-3.2,1.4-3.2,3.2c0,1.8,1.4,3.2,3.2,3.2
		s3.2-1.4,3.2-3.2v-1.1H11v1.1c0,1.8,1.4,3.2,3.2,3.2c1.8,0,3.2-1.4,3.2-3.2S16,11,14.2,11h-1.1V8.9h1.1c1.8,0,3.2-1.4,3.2-3.2
		S16,2.5,14.2,2.5S11,3.9,11,5.7v1.1H8.9V5.7C8.9,3.9,7.5,2.5,5.7,2.5z M5.7,4.6c0.6,0,1.1,0.5,1.1,1.1v1.1H5.7
		c-0.6,0-1.1-0.5-1.1-1.1S5.1,4.6,5.7,4.6z M14.3,4.6c0.6,0,1.1,0.5,1.1,1.1s-0.5,1.1-1.1,1.1h-1.1V5.7C13.2,5.1,13.7,4.6,14.3,4.6z
		 M8.9,8.9H11V11H8.9V8.9z M5.7,13.2h1.1v1.1c0,0.6-0.5,1.1-1.1,1.1s-1.1-0.5-1.1-1.1C4.6,13.7,5.1,13.2,5.7,13.2z M13.2,13.2h1.1
		c0.6,0,1.1,0.5,1.1,1.1c0,0.6-0.5,1.1-1.1,1.1s-1.1-0.5-1.1-1.1C13.2,14.3,13.2,13.2,13.2,13.2z"/>
</g>
</svg>
