<?xml version="1.0" encoding="utf-8"?>
<!-- Generator: Adobe Illustrator 22.0.1, SVG Export Plug-In . SVG Version: 6.00 Build 0)  -->
<svg version="1.1" id="Layer_1" xmlns="http://www.w3.org/2000/svg" xmlns:xlink="http://www.w3.org/1999/xlink" x="0px" y="0px"
	 viewBox="0 0 20 20" enable-background="new 0 0 20 20" xml:space="preserve">
<g id="lightbulb-o">
	<g>
		<path stroke="#000000" stroke-width="0.25" d="M13.4,10c-0.5,0.7-1,1.4-1.4,2.1h-1.5V9l2.3-2.3c0.2-0.2,0.2-0.4,0-0.6
			c-0.2-0.2-0.4-0.2-0.6,0L10,8.3L7.8,6.1C7.7,6,7.4,6,7.2,6.1S7,6.5,7.2,6.7L9.6,9v3.1H8c-0.4-0.7-0.9-1.4-1.4-2.1
			C6,9.3,5.7,8.4,5.7,7.4c0-2.4,2-4.3,4.3-4.3s4.3,2,4.3,4.3C14.3,8.4,14,9.3,13.4,10z M8.4,15.6v-0.8h3.2v0.8H8.4z M11.6,13.3V14
			H8.4v-0.8h3.2V13.3z M10,2C7,2,4.6,4.5,4.6,7.4c0,1.2,0.4,2.3,1.2,3.3c0.6,0.7,1.1,1.5,1.6,2.3l0,0v3.2c0,0.3,0.2,0.5,0.5,0.5h0.6
			C8.6,17.4,9.1,18,9.9,18h0.3c0.8,0,1.4-0.6,1.4-1.3h0.6c0.3,0,0.6-0.2,0.6-0.5V13l0,0c0.4-0.8,0.9-1.6,1.5-2.3
			c0.8-0.9,1.2-2.1,1.2-3.3C15.4,4.5,13,2,10,2z"/>
	</g>
</g>
</svg>
