<?xml version="1.0" encoding="utf-8"?>
<!-- Generator: Adobe Illustrator 22.0.1, SVG Export Plug-In . SVG Version: 6.00 Build 0)  -->
<svg version="1.1" id="icon" xmlns="http://www.w3.org/2000/svg" xmlns:xlink="http://www.w3.org/1999/xlink" x="0px" y="0px"
	 viewBox="0 0 20 20" enable-background="new 0 0 20 20" xml:space="preserve">
<path d="M2.7,17H9c-0.2-0.1-0.3-0.3-0.4-0.4c-0.3-0.3-0.6-0.7-0.8-1H2.9c-0.6,0-1-0.4-1-1V5.3h14.2v1.8c0.4,0.2,0.7,0.5,1,0.8
	c0.1,0.1,0.3,0.3,0.4,0.4V3.3c0-1.2-1-2.2-2.2-2.2H2.7c-1.2,0-2.2,1-2.2,2.2v11.5C0.5,16,1.5,17,2.7,17z M14.6,2.4
	c0.5,0,0.9,0.4,0.9,0.9s-0.4,0.9-0.9,0.9s-0.9-0.4-0.9-0.9S14.1,2.4,14.6,2.4z M11.9,2.4L11.9,2.4L11.9,2.4c0.4,0,0.8,0.3,0.9,0.7
	c0,0.1,0,0.1,0,0.2s0,0.1,0,0.2c-0.1,0.4-0.4,0.7-0.9,0.7l0,0l0,0c-0.5,0-0.9-0.4-0.9-0.9S11.4,2.4,11.9,2.4z M9.3,2.4
	c0.5,0,0.9,0.4,0.9,0.9S9.8,4.2,9.3,4.2S8.4,3.8,8.4,3.3S8.8,2.4,9.3,2.4z M13.4,12.3c0,0.3-0.2,0.6-0.6,0.6c-0.3,0-0.6-0.2-0.6-0.6
	c0-0.3,0.2-0.6,0.6-0.6C13.2,11.7,13.4,12,13.4,12.3z M11.9,12.3c0,0.3-0.2,0.6-0.6,0.6c-0.3,0-0.6-0.2-0.6-0.6
	c0-0.3,0.2-0.6,0.6-0.6C11.7,11.7,11.9,12,11.9,12.3z M15,12.3c0,0.3-0.2,0.6-0.6,0.6c-0.3,0-0.6-0.2-0.6-0.6c0-0.3,0.2-0.6,0.6-0.6
	C14.7,11.7,15,12,15,12.3z M16.2,8.9c-1.8-1.8-4.8-1.8-6.7,0s-1.8,4.8,0,6.7c1.6,1.6,4,1.8,5.8,0.7l2.2,2.3c0.4,0.4,1.1,0.4,1.6,0
	c0.4-0.4,0.4-1.1,0-1.6l-2.2-2.3C18,12.9,17.8,10.5,16.2,8.9z M15.1,14.5c-1.2,1.2-3.3,1.2-4.5,0s-1.2-3.3,0-4.5s3.3-1.2,4.5,0
	S16.4,13.3,15.1,14.5z"/>
</svg>
