<?xml version="1.0" encoding="utf-8"?>
<!-- Generator: Adobe Illustrator 22.0.1, SVG Export Plug-In . SVG Version: 6.00 Build 0)  -->
<svg version="1.1" id="Layer_1" xmlns="http://www.w3.org/2000/svg" xmlns:xlink="http://www.w3.org/1999/xlink" x="0px" y="0px"
	 viewBox="0 0 20 20" enable-background="new 0 0 20 20" xml:space="preserve">
<g id="learn">
	<path d="M9.8,13.2L9.8,13.2l-4.2-1.9V13c0,0.8,1.9,1.9,4.2,1.9S14,13.8,14,13v-1.7L9.8,13.2z"/>
	<polygon points="9.8,5.1 1.5,8.9 9.8,12.6 18.1,8.9 	"/>
	<path d="M17.9,11.9L17.9,11.9c0.2-0.2,0.3-0.4,0.3-0.6c0-0.3-0.2-0.6-0.5-0.6V8.9h-0.2v1.8C17.2,10.8,17,11,17,11.3
		c0,0.2,0.1,0.4,0.3,0.5v0.1l-0.6,2.5h0.9h0.9L17.9,11.9z"/>
</g>
</svg>
