<?xml version="1.0" encoding="utf-8"?>
<!-- Generator: Adobe Illustrator 22.0.1, SVG Export Plug-In . SVG Version: 6.00 Build 0)  -->
<svg version="1.1" id="Layer_1" xmlns="http://www.w3.org/2000/svg" xmlns:xlink="http://www.w3.org/1999/xlink" x="0px" y="0px"
	 viewBox="0 0 20 20" enable-background="new 0 0 20 20" xml:space="preserve">
<g id="Layer_28">
	<path d="M10.1,4C5,4,2,10,2,10s3,6,8.1,6c4.9,0,7.9-6,7.9-6S15,4,10.1,4z M10,6c2.2,0,4,1.8,4,4s-1.8,4-4,4s-4-1.8-4-4S7.8,6,10,6z
		 M10,8c-1.1,0-2,0.9-2,2s0.9,2,2,2s2-0.9,2-2c0-0.2-0.1-0.4-0.1-0.6C11.7,9.8,11.4,10,11,10c-0.6,0-1-0.4-1-1
		c0-0.4,0.2-0.7,0.6-0.9C10.4,8.1,10.2,8,10,8z"/>
</g>
</svg>
