<?xml version="1.0" encoding="utf-8"?>
<!-- Generator: Adobe Illustrator 22.0.1, SVG Export Plug-In . SVG Version: 6.00 Build 0)  -->
<svg version="1.1" id="icon" xmlns="http://www.w3.org/2000/svg" xmlns:xlink="http://www.w3.org/1999/xlink" x="0px" y="0px"
	 viewBox="0 0 20 20" enable-background="new 0 0 20 20" xml:space="preserve">
<g transform="translate(0,-952.36218)">
	<path d="M10,953.9c-2,0-3.6,1.6-3.6,3.6c0,0.7,0.2,1.3,0.5,1.9c-0.1,0.1-0.3,0.2-0.4,0.4l-2.1-1.1v-2.7c0-0.4-0.3-0.8-0.8-0.8
		c0,0,0,0,0,0c-0.4,0-0.8,0.4-0.8,0.8c0,0,0,0,0,0v3.2c0,0.3,0.2,0.6,0.4,0.7l2.4,1.3c-0.2,0.4-0.3,0.8-0.4,1.2H2.1c0,0-0.1,0-0.1,0
		c-0.3,0-0.6,0.2-0.7,0.5l-0.8,2.2c-0.2,0.4,0,0.9,0.4,1c0.4,0.2,0.9,0,1-0.4c0,0,0-0.1,0-0.1l0.6-1.6h2.6v1l-2,1.5
		c-0.2,0.1-0.3,0.4-0.3,0.6v3.2c0,0.4,0.3,0.8,0.8,0.8c0.4,0,0.8-0.3,0.8-0.8c0,0,0,0,0,0v-2.8l0.8-0.6c0.3,2.3,2.3,4.2,4.7,4.2
		s4.4-1.8,4.7-4.2l0.8,0.6v2.8c0,0.4,0.3,0.8,0.8,0.8c0.4,0,0.8-0.3,0.8-0.8c0,0,0,0,0,0v-3.2c0-0.3-0.1-0.5-0.3-0.6l-2-1.5v-1h2.6
		l0.6,1.6c0.1,0.4,0.6,0.7,1,0.5c0.4-0.1,0.7-0.6,0.5-1c0,0,0-0.1,0-0.1l-0.8-2.2c-0.1-0.3-0.4-0.5-0.7-0.5h-3.2
		c-0.1-0.4-0.2-0.8-0.4-1.2l2.4-1.3c0.3-0.1,0.4-0.4,0.4-0.7v-3.2c0-0.4-0.3-0.8-0.8-0.8c0,0,0,0,0,0c-0.4,0-0.8,0.4-0.8,0.8
		c0,0,0,0,0,0v2.7l-2.1,1.1c-0.1-0.1-0.3-0.3-0.4-0.4c0.3-0.5,0.5-1.2,0.5-1.9C13.6,955.5,12,953.9,10,953.9z M10,955.4
		c1.1,0,2,0.9,2,2c0,0.4-0.1,0.8-0.3,1.1c-0.5-0.2-1.1-0.3-1.6-0.3s-1.1,0.1-1.6,0.3c-0.2-0.3-0.3-0.7-0.3-1.1
		C8,956.3,8.9,955.4,10,955.4z M9.2,959.9v6.7c-0.3,0.8-1,1.3-1.5,1.7c-0.5-0.6-0.8-1.3-0.8-2.1v-3.2C6.8,961.5,7.8,960.2,9.2,959.9
		z M10.8,959.9c1.4,0.3,2.4,1.6,2.4,3.1v3.2c0,0.8-0.3,1.6-0.8,2.1c-0.6-0.3-1.2-0.9-1.5-1.7V959.9z M10,968.3
		c0.3,0.3,0.6,0.6,0.9,0.9c-0.3,0.1-0.6,0.1-0.9,0.1s-0.6,0-0.9-0.1C9.4,968.9,9.7,968.6,10,968.3z"/>
</g>
</svg>
