<?xml version="1.0" encoding="utf-8"?>
<!-- Generator: Adobe Illustrator 22.0.1, SVG Export Plug-In . SVG Version: 6.00 Build 0)  -->
<svg version="1.1" id="Layer_1" xmlns="http://www.w3.org/2000/svg" xmlns:xlink="http://www.w3.org/1999/xlink" x="0px" y="0px"
	 viewBox="0 0 20 20" enable-background="new 0 0 20 20" xml:space="preserve">
<g id="silverware">
	<g>
		<path d="M14.1,4.6c0-2.2-1.2-4-2.9-4s-2.9,1.8-2.9,4c0,1.8,0.8,3.2,1.9,3.8c0.1,0.1,0.2,0.2,0.2,0.5l-0.1,2.4v0.1v0.1L10,19
			c0,0.2,0.1,0.5,0.4,0.5h1.4c0.2,0,0.5-0.2,0.4-0.5l-0.4-7.5v-0.1v-0.1V8.7c0-0.2,0.1-0.4,0.2-0.5C13.2,7.7,14.1,6.4,14.1,4.6z"/>
		<path d="M19.2,14.5L19.2,14.5c0-0.1-0.1-0.2-0.1-0.2V1c0-0.3-0.2-0.4-0.4-0.3C17,1.4,15.8,12.2,16,12.9c0.1,0.5,1,0.8,1.5,0.9
			c0.1,0,0.2,0.1,0.2,0.2v0.4v0.1v0.1L17,18.9c0,0.3,0.1,0.5,0.4,0.5h1.8c0.3,0,0.5-0.2,0.5-0.5L19.2,14.5z"/>
		<path d="M6.2,0.6C5.8,0.7,5.6,1,5.6,1.2V5c0,0.4-0.2,0.6-0.6,0.6l0,0C4.6,5.6,4.4,5.4,4.4,5V1.2c0-0.4-0.2-0.6-0.5-0.6
			C3.5,0.6,3.1,1,3.1,1.2V5c0,0.4-0.2,0.6-0.6,0.6l0,0C2.1,5.6,1.9,5.4,1.9,5V1.2c0-0.4-0.2-0.6-0.5-0.6C1,0.6,0.6,1,0.6,1.2v4.9
			c0,0.1,0,0.1,0,0.1C0.7,6.9,1.1,8,3,8.7l0,0c0,0,0,0,0.1,0.1C3.1,9,3.2,9,3.2,9.1l-0.1,2C3,11.2,3,11.4,3,11.5L2.5,19
			c0,0.2,0.2,0.5,0.5,0.5h1.4c0.2,0,0.5-0.2,0.5-0.5l-0.5-7.4c0-0.1-0.1-0.2-0.1-0.4l-0.1-2c0-0.1,0-0.1,0.1-0.2l0,0h0.1
			c1.9-0.8,2.2-1.9,2.4-2.5c0,0,0-0.1,0-0.2v-5C6.8,1,6.5,0.6,6.2,0.6z"/>
	</g>
</g>
</svg>
