<?xml version="1.0" encoding="utf-8"?>
<!-- Generator: Adobe Illustrator 22.0.1, SVG Export Plug-In . SVG Version: 6.00 Build 0)  -->
<svg version="1.1" id="Layer_1" xmlns="http://www.w3.org/2000/svg" xmlns:xlink="http://www.w3.org/1999/xlink" x="0px" y="0px"
	 viewBox="0 0 20 20" enable-background="new 0 0 20 20" xml:space="preserve">
<g id="smiley-alt">
	<path d="M10,2c-4.4,0-8,3.6-8,8l0,0c0,4.4,3.6,8,8,8l0,0c4.4,0,8-3.6,8-8l0,0C18,5.6,14.4,2,10,2L10,2 M7.3,7.8
		c0.7,0,1.3,0.6,1.3,1.3S8,10.4,7.3,10.4S6,9.8,6,9.1S6.6,7.8,7.3,7.8 M12.9,7.8c0.7,0,1.3,0.6,1.3,1.3s-0.6,1.3-1.3,1.3
		s-1.3-0.6-1.3-1.3S12.2,7.8,12.9,7.8 M7.2,12.9c0,0,1.1,1.6,2.8,1.6s2.8-1.6,2.8-1.6l0.6,0.4c0,0-1.2,2-3.5,2s-3.5-2-3.5-2
		L7.2,12.9"/>
</g>
</svg>
