<?xml version="1.0" encoding="utf-8"?>
<!-- Generator: Adobe Illustrator 22.0.1, SVG Export Plug-In . SVG Version: 6.00 Build 0)  -->
<svg version="1.1" id="Layer_1" xmlns="http://www.w3.org/2000/svg" xmlns:xlink="http://www.w3.org/1999/xlink" x="0px" y="0px"
	 viewBox="0 0 20 20" enable-background="new 0 0 20 20" xml:space="preserve">
<g id="heart">
	<path d="M5.9,3.6C4.8,3.6,3.8,4.1,3,4.8C2.4,5.5,1.9,6.5,1.9,7.6s0.5,2.1,1.2,2.9l6.9,6.9l6.9-6.9c0.7-0.7,1.2-1.7,1.2-2.9
		c0-1.1-0.5-2.1-1.2-2.9C16.2,4,15.2,3.5,14,3.5c-1.1,0-2.1,0.5-2.9,1.2C10.5,5.5,10,6.5,10,7.6c0-1.1-0.5-2.1-1.2-2.9
		C8.1,4.1,7.1,3.6,5.9,3.6z"/>
</g>
</svg>
