<?xml version="1.0" encoding="utf-8"?>
<!-- Generator: Adobe Illustrator 22.0.1, SVG Export Plug-In . SVG Version: 6.00 Build 0)  -->
<svg version="1.1" id="Layer_1" xmlns="http://www.w3.org/2000/svg" xmlns:xlink="http://www.w3.org/1999/xlink" x="0px" y="0px"
	 viewBox="0 0 20 20" enable-background="new 0 0 20 20" xml:space="preserve">
<g id="android">
	<g>
		<g id="android_1_">
			<path d="M6,14c0,0.4,0.3,0.7,0.7,0.7h0.7V17c0,0.5,0.5,1,1,1s1-0.5,1-1v-2.3h1.3V17c0,0.5,0.5,1,1,1s1-0.5,1-1v-2.3h0.7
				c0.4,0,0.7-0.3,0.7-0.7V7.3H6V14z M4.3,7.3c-0.5,0-1,0.5-1,1V13c0,0.5,0.5,1,1,1s1-0.5,1-1V8.3C5.3,7.8,4.9,7.3,4.3,7.3z
				 M15.7,7.3c-0.5,0-1,0.5-1,1V13c0,0.5,0.5,1,1,1s1-0.5,1-1V8.3C16.7,7.8,16.2,7.3,15.7,7.3z M12.3,3.5l0.9-0.9
				c0.1-0.1,0.1-0.3,0-0.5c-0.1-0.1-0.3-0.1-0.5,0l-1,1c-0.5-0.3-1.1-0.5-1.7-0.5C9.3,2.6,8.7,2.7,8.2,3L7.3,2C7.1,2,6.9,2,6.7,2.1
				c-0.1,0.1-0.1,0.4,0,0.5l0.9,0.9C6.7,4.2,6,5.3,6,6.7h8C14,5.3,13.3,4.1,12.3,3.5z M8.7,5.3H8V4.7h0.7V5.3z M12,5.3h-0.7V4.7H12
				V5.3z"/>
		</g>
	</g>
</g>
</svg>
