<?xml version="1.0" encoding="utf-8"?>
<!-- Generator: Adobe Illustrator 22.0.1, SVG Export Plug-In . SVG Version: 6.00 Build 0)  -->
<svg version="1.1" id="Layer_1" xmlns="http://www.w3.org/2000/svg" xmlns:xlink="http://www.w3.org/1999/xlink" x="0px" y="0px"
	 viewBox="0 0 20 20" enable-background="new 0 0 20 20" xml:space="preserve">
<g id="Layer_12">
	<path d="M11.2,8.8L7.7,8.2L5.9,4.9L4.2,8.1L0.5,8.8l2.7,2.7l-0.4,3.7l3.4-1.7l3.4,1.7L9,11.5L11.2,8.8z M7.4,12.3l-1.6-0.8
		l-1.6,0.8l0.2-1.8L3.3,9.3l1.8-0.2l0.7-1.5l0.9,1.6l1.8,0.2l-1.2,1.3L7.4,12.3z"/>
	<g>
		<g>
			<path d="M6.6,5.1L8,7.5l3.4,0.6l1.3,0.2l-1,1l-2.3,2.3l0.2,1.9c2.5-2.1,6.1-3.2,9.9-2.7C16.5,7.2,11.8,5.1,6.6,5.1z"/>
		</g>
	</g>
</g>
</svg>
