<?xml version="1.0" encoding="utf-8"?>
<!-- Generator: Adobe Illustrator 22.0.1, SVG Export Plug-In . SVG Version: 6.00 Build 0)  -->
<svg version="1.1" id="Layer_1" xmlns="http://www.w3.org/2000/svg" xmlns:xlink="http://www.w3.org/1999/xlink" x="0px" y="0px"
	 viewBox="0 0 20 20" enable-background="new 0 0 20 20" xml:space="preserve">
<g id="Layer_6">
	<path d="M2.5,2.5C2.5,2.5,2.4,2.6,2.5,2.5L2,6c0,0.1,0.1,0.2,0.2,0.2l0,0l2.3-0.3L4.2,8.2c0,0.1,0.1,0.2,0.2,0.2l0,0l2.3-0.3
		l-0.3,2.3c0,0.1,0,0.1,0.1,0.1l0.9,0.9c-0.4,1.8,0.1,3.7,1.4,5c2.1,2.1,5.5,2.1,7.6,0s2.1-5.5,0-7.6l0,0c-1.3-1.3-3.2-1.8-5-1.4
		L6.1,2.1C6.1,2,6,2,6,2L2.5,2.5C2.5,2.4,2.5,2.5,2.5,2.5 M12.6,12.6c0.6-0.6,1.5-0.6,2,0c0.6,0.6,0.6,1.5,0,2l0,0
		c-0.6,0.6-1.5,0.6-2,0l0,0C12,14,12,13.1,12.6,12.6"/>
</g>
</svg>
