<?xml version="1.0" encoding="utf-8"?>
<!-- Generator: Adobe Illustrator 22.0.1, SVG Export Plug-In . SVG Version: 6.00 Build 0)  -->
<svg version="1.1" id="Layer_1" xmlns="http://www.w3.org/2000/svg" xmlns:xlink="http://www.w3.org/1999/xlink" x="0px" y="0px"
	 viewBox="0 0 20 20" enable-background="new 0 0 20 20" xml:space="preserve">
<g id="male">
	<path d="M11.9,14.4c1.5-1.2,2.3-2.4,2.7-3.8c0.4-0.1,0.6-0.4,0.8-0.8c0.2-0.6,0.1-1.2-0.4-1.4c0-0.4,0.1-0.7,0.1-1.1
		c0.4-3.8-1.3-5.8-5.2-5.6C8.9,1.8,8.3,2.3,8.3,2.3c-2.7-0.5-3.8,2.1-3.6,5c0,0.4,0.1,0.7,0.1,1.1C4.5,8.6,4.4,9.2,4.5,9.8
		c0.1,0.5,0.5,0.7,0.8,0.8c0.5,1.4,1.2,2.6,2.7,3.8c-3.8,1-7.6,2.4-7.6,3.8v0.1h19v-0.1l0,0C19.5,16.8,15.7,15.3,11.9,14.4z"/>
</g>
</svg>
