<?xml version="1.0" encoding="utf-8"?>
<!-- Generator: Adobe Illustrator 22.0.1, SVG Export Plug-In . SVG Version: 6.00 Build 0)  -->
<svg version="1.1" id="Layer_1" xmlns="http://www.w3.org/2000/svg" xmlns:xlink="http://www.w3.org/1999/xlink" x="0px" y="0px"
	 viewBox="0 0 20 20" enable-background="new 0 0 20 20" xml:space="preserve">
<g id="Layer_14">
	<g>
		<path d="M16.7,3.7c-4,0-5.4,1.3-5.4,1.3V3.7C14,1,16.7,3.7,16.7,3.7z M11.3,6.4c0-0.7,0.9-1.3,2-1.3s2,0.6,2,1.3s-0.9,1.3-2,1.3
			C12.3,7.7,11.3,7.1,11.3,6.4z M12.7,11.8H14v-1.3l1.3,1.3L14,13.1h-2.7L10,11.8l-1.3,1.3H6l-1.3-1.3L6,10.4v1.3h1.3l1.3-1.3h2.7
			L12.7,11.8z M8.7,6.4c0,0.7-0.9,1.3-2,1.3s-2-0.6-2-1.3s0.9-1.3,2-1.3C7.8,5,8.7,5.6,8.7,6.4z M8.7,3.7V5c0,0-2.7-1.3-5.4-1.3
			C3.3,3.7,6,1,8.7,3.7z M11.3,14.5v2.7L10,18.5l-1.3-1.3v-2.7C8.7,14.5,10,13.1,11.3,14.5z"/>
	</g>
</g>
</svg>
