<?xml version="1.0" encoding="utf-8"?>
<!-- Generator: Adobe Illustrator 22.0.1, SVG Export Plug-In . SVG Version: 6.00 Build 0)  -->
<svg version="1.1" id="Layer_1" xmlns="http://www.w3.org/2000/svg" xmlns:xlink="http://www.w3.org/1999/xlink" x="0px" y="0px"
	 viewBox="0 0 20 20" enable-background="new 0 0 20 20" xml:space="preserve">
<g id="Layer_9">
	<path color-interpolation="sRGB" image-rendering="auto" color-rendering="auto" shape-rendering="auto" d="M10,2c-4.4,0-8,3.6-8,8
		s3.6,8,8,8s8-3.6,8-8S14.4,2,10,2 M10,2.7c4,0,7.3,3.3,7.3,7.3S14,17.3,10,17.3S2.7,14,2.7,10C2.7,6,6,2.7,10,2.7 M7.4,8
		C6.7,8,6.2,8.5,6.2,9.2s0.5,1.2,1.2,1.2s1.2-0.5,1.2-1.2C8.5,8.5,8,8,7.4,8 M12.6,8c-0.7,0-1.2,0.5-1.2,1.2s0.5,1.2,1.2,1.2
		s1.2-0.5,1.2-1.2S13.3,8,12.6,8 M7.4,12.7l-0.6,0.4c0,0,1.2,2,3.3,2s3.3-2,3.3-2l-0.6-0.4c0,0-1,1.6-2.6,1.6S7.4,12.7,7.4,12.7"/>
</g>
</svg>
