<?xml version="1.0" encoding="utf-8"?>
<!-- Generator: Adobe Illustrator 22.0.1, SVG Export Plug-In . SVG Version: 6.00 Build 0)  -->
<svg version="1.1" id="Layer_1" xmlns="http://www.w3.org/2000/svg" xmlns:xlink="http://www.w3.org/1999/xlink" x="0px" y="0px"
	 viewBox="0 0 20 20" enable-background="new 0 0 20 20" xml:space="preserve">
<g id="bar-graph-down">
	<g>
		<path d="M4.7,19.5H1.6c-0.3,0-0.5-0.3-0.5-0.5V8.3c0-0.3,0.3-0.5,0.5-0.5h3.3c0.3,0,0.5,0.3,0.5,0.5V19C5.2,19.2,5,19.5,4.7,19.5z
			"/>
		<path d="M10.7,19.5H7.4c-0.3,0-0.5-0.3-0.5-0.5v-8.2c0-0.3,0.3-0.5,0.5-0.5h3.3c0.3,0,0.5,0.3,0.5,0.5V19
			C11.2,19.2,10.9,19.5,10.7,19.5z"/>
		<path d="M16.5,19.5h-3.3c-0.3,0-0.5-0.3-0.5-0.5v-5.9c0-0.3,0.3-0.5,0.5-0.5h3.3c0.3,0,0.5,0.3,0.5,0.5V19
			C17,19.2,16.7,19.5,16.5,19.5z"/>
		<path d="M18.7,7.1c-0.4,0-0.5,0.3-0.5,0.5v1.3C18.2,9,18.1,9,18,9l-5.3-4.9c-0.3-0.3-0.5-0.3-0.8,0L8.5,7C8.4,7.1,8.4,7,8.3,7
			L1.6,0.7c-0.3-0.3-0.5-0.3-0.8,0s-0.3,0.5,0,0.8L8,8.3c0.3,0.3,0.5,0.3,0.8,0l3.4-2.9c0.1,0,0.1,0,0.3,0l4.9,4.4
			c0.1,0.1,0,0.3-0.1,0.3H16c-0.4,0-0.5,0.3-0.5,0.5c0,0.4,0.3,0.5,0.5,0.5h2.9c0.4,0,0.5-0.3,0.5-0.5V7.6C19.2,7.4,19,7.1,18.7,7.1
			z"/>
	</g>
</g>
</svg>
