<?xml version="1.0" encoding="utf-8"?>
<!-- Generator: Adobe Illustrator 22.0.1, SVG Export Plug-In . SVG Version: 6.00 Build 0)  -->
<svg version="1.1" id="Layer_1" xmlns="http://www.w3.org/2000/svg" xmlns:xlink="http://www.w3.org/1999/xlink" x="0px" y="0px"
	 viewBox="0 0 20 20" enable-background="new 0 0 20 20" xml:space="preserve">
<g id="flame">
	<path d="M9.5,19.1c0,0-6.3,0-6.3-5.3s5.6-6.9,5.6-11c0-1.2-0.4-1.7-1-2.3c3,0.1,5.3,3.1,5.3,7.2c0,0.8-0.4,2.6-0.7,3
		c-0.4,0.4,2.4-1.7,2.4-3.4c0,0,1.9,1.8,1.9,5.6s-4.2,6.7-6.2,6.7c1.2-1.2,2-2.4,2-3.8c0-2.9-2.4-2.5-3-3.9c0-0.1-0.1-0.2-0.1-0.4
		c0-0.4,0-0.7,0.2-1.1l0.6-0.9c0,0-3.7,1.1-3.7,5S8.9,18.6,9.5,19.1z"/>
</g>
</svg>
