<?xml version="1.0" encoding="utf-8"?>
<!-- Generator: Adobe Illustrator 22.0.1, SVG Export Plug-In . SVG Version: 6.00 Build 0)  -->
<svg version="1.1" id="Layer_1" xmlns="http://www.w3.org/2000/svg" xmlns:xlink="http://www.w3.org/1999/xlink" x="0px" y="0px"
	 viewBox="0 0 20 20" enable-background="new 0 0 20 20" xml:space="preserve">
<g id="refresh">
	<g>
		<path d="M10.7,11.7v2.2C12.6,13.6,14,12,14,10c0-0.6-0.1-1.2-0.4-1.7c-0.1-0.2-0.2-0.4-0.4-0.6L15,6c0,0,0.1,0.1,0.1,0.2
			c0.8,1.1,1.3,2.4,1.3,3.8v0.1c-0.1,2.7-1.8,5-4.2,5.9c-0.5,0.2-1,0.3-1.5,0.3v2.2L7.8,16l-1-0.9l1.7-1.5L10.7,11.7z"/>
		<path d="M3.7,9.9C3.8,7.2,5.5,4.9,8,4c0.4-0.2,0.9-0.3,1.4-0.3V1.5L12.2,4l1,0.9l-1.7,1.5L9.3,8.3V6.1c-1.8,0.3-3.2,2-3.2,3.9
			c0,0.6,0.1,1.2,0.4,1.7c0.1,0.2,0.2,0.4,0.4,0.6L5,14c0-0.1-0.1-0.1-0.1-0.2c-0.8-1.1-1.2-2.4-1.2-3.8V9.9z"/>
	</g>
</g>
</svg>
