<?xml version="1.0" encoding="utf-8"?>
<!-- Generator: Adobe Illustrator 22.0.1, SVG Export Plug-In . SVG Version: 6.00 Build 0)  -->
<svg version="1.1" id="Layer_1" xmlns="http://www.w3.org/2000/svg" xmlns:xlink="http://www.w3.org/1999/xlink" x="0px" y="0px"
	 viewBox="0 0 20 20" enable-background="new 0 0 20 20" xml:space="preserve">
<g id="command-circle">
	<path d="M10,19.5c-5.2,0-9.5-4.3-9.5-9.5S4.8,0.5,10,0.5s9.5,4.3,9.5,9.5S15.2,19.5,10,19.5z M10,1.9c-4.5,0-8.1,3.7-8.1,8.1
		c0,4.5,3.7,8.1,8.1,8.1c4.5,0,8.1-3.7,8.1-8.1C18.1,5.5,14.5,1.9,10,1.9z"/>
	<path d="M13.1,10.9h-1V9.2h1c1.2,0,2.1-0.9,2.1-2.1s-0.9-2.1-2.1-2.1s-2.1,1-2.1,2.1v1H9.2V6.9c0-1.2-0.9-2.1-2.1-2.1
		S4.8,5.7,4.8,6.9s0.9,2.1,2.1,2.1h1v1.8H6.9c-1.2,0-2.1,0.9-2.1,2.1s1,2.1,2.1,2.1s2.1-0.9,2.1-2.1V12h1.8V13
		c0,1.2,0.9,2.1,2.1,2.1s2.1-0.9,2.1-2.1C15.2,11.9,14.3,10.9,13.1,10.9z M13.1,7.9h-1V6.9c0-0.5,0.4-0.9,1-0.9S14,6.3,14,6.9
		S13.6,7.9,13.1,7.9z M13.1,14c-0.5,0-1-0.4-1-0.9v-1h1c0.5,0,0.9,0.4,0.9,1C14,13.6,13.6,14,13.1,14z M10.9,9.1v1.8H9.2V9.1H10.9z
		 M6.9,12.1h0.9v1c0,0.5-0.4,0.9-1,0.9c-0.5,0-1-0.4-1-0.9C6,12.6,6.4,12.1,6.9,12.1z M6.9,6c0.5,0,0.9,0.4,0.9,0.9v0.9H6.9
		C6.4,7.9,6,7.5,6,6.9C6,6.4,6.4,6,6.9,6z"/>
</g>
</svg>
