<?xml version="1.0" encoding="utf-8"?>
<!-- Generator: Adobe Illustrator 22.0.1, SVG Export Plug-In . SVG Version: 6.00 Build 0)  -->
<svg version="1.1" id="icon" xmlns="http://www.w3.org/2000/svg" xmlns:xlink="http://www.w3.org/1999/xlink" x="0px" y="0px"
	 viewBox="0 0 20 20" enable-background="new 0 0 20 20" xml:space="preserve">
<path d="M16.7,16.7L16.7,16.7L16.7,16.7l-2.8-2.8l1.9,0V7.7l0,0c0-1.3-1.1-2.4-2.4-2.4C12,5.3,11,6.3,11,7.7h0v4.7h0
	c0,2.4-1.9,4.3-4.3,4.3c-2.4,0-4.3-1.9-4.3-4.3V6.2l-1.8,0l2.8-2.8l0,0l0,0l2.8,2.8l-1.9,0v6.2l0,0c0,1.3,1.1,2.4,2.4,2.4
	C8,14.7,9,13.7,9,12.3h0V7.6h0c0-2.4,2-4.3,4.3-4.3c2.4,0,4.3,1.9,4.3,4.3v6.2l1.8,0L16.7,16.7z"/>
</svg>
