<?xml version="1.0" encoding="utf-8"?>
<!-- Generator: Adobe Illustrator 22.0.1, SVG Export Plug-In . SVG Version: 6.00 Build 0)  -->
<svg version="1.1" id="Layer_1" xmlns="http://www.w3.org/2000/svg" xmlns:xlink="http://www.w3.org/1999/xlink" x="0px" y="0px"
	 viewBox="0 0 20 20" enable-background="new 0 0 20 20" xml:space="preserve">
<g id="Layer_14">
	<g>
		<path d="M18,1.9c-4.8,0-6.4,1.5-6.4,1.5V1.9C14.8-1.3,18,1.9,18,1.9z M11.5,5.1c0-0.8,1.1-1.5,2.4-1.5s2.4,0.7,2.4,1.5
			s-1.1,1.5-2.4,1.5C12.7,6.7,11.5,6,11.5,5.1z M13.2,11.5h1.5V10l1.5,1.5l-1.5,1.5h-3.2L10,11.5l-1.5,1.5H5.2l-1.5-1.5l1.5-1.7v1.5
			h1.5l1.5-1.5h3.2L13.2,11.5z M8.5,5.1c0,0.8-1.1,1.5-2.4,1.5S3.7,6,3.7,5.1s1.1-1.5,2.4-1.5C7.4,3.5,8.5,4.2,8.5,5.1z M8.5,1.9
			v1.5c0,0-3.2-1.5-6.4-1.5C2,1.9,5.2-1.3,8.5,1.9z M11.5,14.8V18L10,19.5L8.5,18v-3.2C8.5,14.8,10,13.1,11.5,14.8z"/>
	</g>
</g>
</svg>
