<?xml version="1.0" encoding="utf-8"?>
<!-- Generator: Adobe Illustrator 22.0.1, SVG Export Plug-In . SVG Version: 6.00 Build 0)  -->
<svg version="1.1" id="Layer_1" xmlns="http://www.w3.org/2000/svg" xmlns:xlink="http://www.w3.org/1999/xlink" x="0px" y="0px"
	 viewBox="0 0 20 20" enable-background="new 0 0 20 20" xml:space="preserve">
<g id="music-note">
	<path d="M9.5,2v10.3c-1-0.4-2.4-0.3-3.6,0.4c-1.8,1-2.6,2.9-1.8,4.2s2.9,1.6,4.7,0.6c1.3-0.7,2.1-1.9,2.1-3c0-3,0-5.9,0-8.8
		c2.6,0,4.1,1,3.6,3.6c-0.3,1.3-1,2.4-1.8,3.2c2.1-1.2,3.6-3.1,3.6-5c0-1.8-1.7-2.9-3.2-3.6C12.3,3.5,11.3,3,11,2.1L9.5,2L9.5,2z"/>
</g>
</svg>
