<?xml version="1.0" encoding="utf-8"?>
<!-- Generator: Adobe Illustrator 22.0.1, SVG Export Plug-In . SVG Version: 6.00 Build 0)  -->
<svg version="1.1" id="Layer_1" xmlns="http://www.w3.org/2000/svg" xmlns:xlink="http://www.w3.org/1999/xlink" x="0px" y="0px"
	 viewBox="0 0 20 20" enable-background="new 0 0 20 20" xml:space="preserve">
<g id="female-question">
	<path d="M11.7,14.1c2.5-0.4,4.2-2.1,4.2-2.1s-1.3-2.5-1.3-4.6c0-3.3-2.1-5-4.6-5l0,0c-2.5,0-4.6,1.7-4.6,5c0,2.1-1.3,4.6-1.3,4.6
		s1.7,1.7,4.2,2.1C4.6,15.3,2,16.6,2,17.4v0.3h16v-0.3l0,0C18,16.6,15.4,15.3,11.7,14.1z M10.5,12c-0.1,0.1-0.3,0.2-0.5,0.2
		S9.6,12.1,9.5,12c-0.1-0.1-0.2-0.3-0.2-0.5s0.1-0.4,0.2-0.5c0.1-0.1,0.3-0.2,0.5-0.2s0.4,0.1,0.5,0.2c0.1,0.1,0.2,0.3,0.2,0.5
		S10.7,11.9,10.5,12z M11,9.1c-0.2,0.2-0.4,0.5-0.4,0.8v0.3H9.4c0-0.4,0.1-0.8,0.2-1c0.1-0.3,0.3-0.5,0.6-0.7s0.5-0.4,0.5-0.6
		c0.1-0.2,0.1-0.3,0.1-0.5c0-0.5-0.2-0.8-0.7-0.8c-0.2,0-0.4,0.1-0.5,0.2C9.5,6.9,9.4,7.1,9.4,7.4H8c0-0.6,0.2-1,0.6-1.4
		C9,5.7,9.5,5.5,10.1,5.5s1.1,0.2,1.5,0.5s0.5,0.8,0.5,1.3c0,0.3-0.1,0.5-0.2,0.7c-0.1,0.2-0.3,0.5-0.6,0.8L11,9.1z"/>
</g>
</svg>
