<?xml version="1.0" encoding="utf-8"?>
<!-- Generator: Adobe Illustrator 22.0.1, SVG Export Plug-In . SVG Version: 6.00 Build 0)  -->
<svg version="1.1" id="Layer_1" xmlns="http://www.w3.org/2000/svg" xmlns:xlink="http://www.w3.org/1999/xlink" x="0px" y="0px"
	 viewBox="0 0 20 20" enable-background="new 0 0 20 20" xml:space="preserve">
<g id="Layer_16">
	<g>
		<path d="M16.5,8.8c-0.1-2.4-2-4.4-4.5-4.4c-1.6,0-3,0.9-3.8,2.1c-0.3,0-0.6-0.1-0.9-0.1c-1.4,0-2.6,0.9-3,2.1
			C2.9,8.9,2,10.1,2,11.4c0,1.7,1.3,3,3,3h2.4v-1H5c-1.1,0-2-0.9-2-2s0.9-2,2-2l0,0l0,0c0.1-1.1,1.1-2,2.2-2c0.5,0,1,0.2,1.4,0.5
			C9,6.5,10.4,5.4,12,5.4c1.9,0,3.5,1.6,3.5,3.5c0,0.2,0,0.4,0,0.6c0.9,0.2,1.5,1,1.5,1.9c0,1.1-0.9,2-2,2h-2.4v1H15
			c1.7,0,3-1.3,3-3C18,10.3,17.4,9.4,16.5,8.8z"/>
		<path d="M12.1,11.7l-1-1L10,9.6c0,0-0.1,0-0.2,0l-1.1,1.1l-1,1l-0.4,0.4v0.1c0,0,0,0,0,0.1s0.1,0.1,0.1,0.1H9v3.1
			c0,0.1,0.1,0.2,0.2,0.2h1.6c0.1,0,0.2-0.1,0.2-0.2v-3.1h1.5c0.1,0,0.1,0,0.1-0.1s0-0.1,0-0.2L12.1,11.7z"/>
	</g>
</g>
</svg>
