<?xml version="1.0" encoding="utf-8"?>
<!-- Generator: Adobe Illustrator 22.0.1, SVG Export Plug-In . SVG Version: 6.00 Build 0)  -->
<svg version="1.1" id="Layer_1" xmlns="http://www.w3.org/2000/svg" xmlns:xlink="http://www.w3.org/1999/xlink" x="0px" y="0px"
	 viewBox="0 0 20 20" enable-background="new 0 0 20 20" xml:space="preserve">
<g id="at">
	<g>
		<path d="M17.1,15.4c-0.9,0.9-1.9,1.6-3,2c-1.2,0.4-2.4,0.6-3.7,0.6C9.2,18,8,17.8,7,17.4s-1.9-0.9-2.6-1.6s-1.3-1.5-1.7-2.5
			C2.2,12.2,2,11.2,2,10c0-1.1,0.2-2.2,0.7-3.2c0.4-1,1-1.8,1.8-2.5S6.1,3,7.1,2.6S9.2,2,10.3,2c1,0,1.9,0.1,2.9,0.4
			c0.9,0.3,1.8,0.7,2.5,1.3S17,5,17.4,5.9s0.6,1.9,0.6,3c0,0.9-0.1,1.6-0.4,2.3c-0.2,0.7-0.6,1.2-1,1.7c-0.4,0.4-0.9,0.8-1.4,1
			c-0.5,0.2-1.1,0.3-1.6,0.3c-0.6,0-1-0.1-1.4-0.4c-0.3-0.3-0.5-0.6-0.5-1h-0.1c-0.2,0.3-0.6,0.7-1,1c-0.4,0.3-1,0.5-1.7,0.5
			c-1,0-1.7-0.3-2.3-1c-0.5-0.6-0.8-1.5-0.8-2.5c0-0.6,0.1-1.2,0.3-1.8C6.3,8.4,6.6,7.9,7,7.4s0.8-0.8,1.3-1.1S9.4,5.9,10,5.9
			c0.5,0,1,0.1,1.4,0.3C12,6.4,12.2,6.7,12.3,7l0,0l0.2-0.9h1.9l-0.9,4.1c0,0.2-0.1,0.4-0.1,0.7c-0.1,0.2-0.1,0.5-0.1,0.7
			s0,0.4,0.1,0.6c0.1,0.2,0.3,0.2,0.6,0.2c0.6,0,1-0.3,1.4-0.9c0.4-0.6,0.6-1.4,0.6-2.4c0-0.9-0.1-1.6-0.4-2.3s-0.7-1.2-1.2-1.7
			c-0.5-0.4-1.1-0.8-1.8-1s-1.5-0.3-2.3-0.3C9.4,3.8,8.5,4,7.8,4.3C7,4.6,6.3,5,5.8,5.6s-1,1.2-1.2,2c-0.3,0.8-0.4,1.6-0.4,2.5
			s0.2,1.8,0.5,2.6s0.8,1.4,1.3,1.9s1.2,1,2,1.2c0.8,0.3,1.6,0.4,2.6,0.4c1.2,0,2.2-0.2,3-0.6c0.8-0.4,1.6-0.9,2.3-1.5L17.1,15.4z
			 M10.3,7.6c-0.3,0-0.7,0.1-0.9,0.3S8.9,8.4,8.7,8.7s-0.3,0.7-0.4,1c-0.1,0.4-0.1,0.7-0.1,1.1c0,0.2,0,0.4,0.1,0.6
			c0,0.2,0.1,0.4,0.2,0.5c0.1,0.2,0.2,0.3,0.4,0.4c0.2,0.1,0.4,0.2,0.7,0.2c0.4,0,0.7-0.1,1-0.3s0.5-0.4,0.7-0.7s0.3-0.6,0.4-1
			c0.1-0.3,0.1-0.7,0.1-0.9s0-0.5-0.1-0.7c0-0.2-0.1-0.4-0.2-0.6C11.3,8,11.1,7.9,11,7.7C10.8,7.6,10.5,7.6,10.3,7.6z"/>
	</g>
</g>
</svg>
