<?xml version="1.0" encoding="utf-8"?>
<!-- Generator: Adobe Illustrator 22.0.1, SVG Export Plug-In . SVG Version: 6.00 Build 0)  -->
<svg version="1.1" id="Layer_1" xmlns="http://www.w3.org/2000/svg" xmlns:xlink="http://www.w3.org/1999/xlink" x="0px" y="0px"
	 viewBox="0 0 20 20" enable-background="new 0 0 20 20" xml:space="preserve">
<g id="bar-graph-up">
	<g>
		<path d="M18.3,7.8h-3.3c-0.2,0-0.4,0.1-0.4,0.4v10.8c0,0.2,0.1,0.4,0.4,0.4h3.3c0.2,0,0.4-0.1,0.4-0.4V8.2
			C18.7,8,18.5,7.8,18.3,7.8z"/>
		<path d="M12.4,10.5H9.2c-0.2,0-0.4,0.1-0.4,0.4v8.2c0,0.2,0.1,0.4,0.4,0.4h3.3c0.2,0,0.4-0.1,0.4-0.4v-8.2
			C12.9,10.6,12.8,10.5,12.4,10.5z"/>
		<path d="M6.6,12.6H3.3c-0.2,0-0.4,0.1-0.4,0.4v5.9c0,0.2,0.1,0.4,0.4,0.4h3.3c0.2,0,0.4-0.1,0.4-0.4V13
			C7.1,12.9,6.8,12.6,6.6,12.6z"/>
		<path d="M18.7,0.5h-2.9c-0.4,0-0.5,0.2-0.5,0.5s0.3,0.5,0.6,0.5h1.3c0.1,0,0.1,0.1,0.1,0.2l-4.9,4.4c-0.1,0.1-0.2,0.1-0.4,0
			L8.6,3.2C8.3,3,8,3.1,7.8,3.2l-7,6.8c-0.2,0.2-0.2,0.5,0,0.7C0.9,11,1,11,1.1,11s0.2,0,0.4-0.1L8,4.7c0.1-0.1,0.2-0.1,0.4,0
			l3.4,2.9c0.2,0.2,0.5,0.1,0.7,0l5.5-5c0.1-0.1,0.3,0,0.3,0.2v1.3c0,0.4,0.2,0.5,0.5,0.5c0.4,0,0.5-0.2,0.5-0.5V1
			C19.3,0.7,19.1,0.5,18.7,0.5z"/>
	</g>
</g>
</svg>
