<?xml version="1.0" encoding="utf-8"?>
<!-- Generator: Adobe Illustrator 22.0.1, SVG Export Plug-In . SVG Version: 6.00 Build 0)  -->
<svg version="1.1" id="icon" xmlns="http://www.w3.org/2000/svg" xmlns:xlink="http://www.w3.org/1999/xlink" x="0px" y="0px"
	 viewBox="0 0 20 20" enable-background="new 0 0 20 20" xml:space="preserve">
<g transform="translate(0,-952.36218)">
	<path d="M2.2,963.8c-0.9,0-1.7,0.8-1.7,1.7v3.1c0,0.9,0.8,1.7,1.7,1.7h15.6c0.9,0,1.7-0.8,1.7-1.7v-3.1c0-0.9-0.8-1.7-1.7-1.7H2.2
		L2.2,963.8z M2.9,965c0.6,0,1.1,0.5,1.1,1.1c0,0.6-0.5,1.1-1.1,1.1c-0.6,0-1.1-0.5-1.1-1.1C1.8,965.5,2.3,965,2.9,965z M7.6,965.5
		C7.6,965.5,7.6,965.5,7.6,965.5h9c0.2,0,0.4,0.2,0.4,0.4c0,0.2-0.2,0.4-0.4,0.4c0,0,0,0,0,0h-9c-0.2,0-0.4-0.2-0.5-0.4
		C7.2,965.7,7.4,965.5,7.6,965.5z M7.6,967.8C7.6,967.8,7.6,967.8,7.6,967.8h9c0.2,0,0.4,0.2,0.4,0.4c0,0.2-0.2,0.4-0.4,0.4
		c0,0,0,0,0,0h-9c-0.2,0-0.4-0.2-0.5-0.4C7.2,968,7.4,967.8,7.6,967.8z"/>
	<path d="M9.4,954.4c-0.2,0-0.4,0.2-0.4,0.4v4.4l-0.9-0.8c-0.2-0.1-0.4-0.1-0.6,0l-0.7,0.9c-0.2,0.2-0.1,0.5,0,0.6c0,0,0,0,0,0
		l3,2.4c0.2,0.1,0.4,0.1,0.5,0l3-2.4c0.2-0.2,0.2-0.4,0.1-0.6c0,0,0,0,0,0l-0.8-0.9c-0.2-0.2-0.4-0.2-0.6,0l-0.9,0.8v-4.4
		c0-0.2-0.2-0.4-0.4-0.4H9.4z"/>
</g>
</svg>
