<?xml version="1.0" encoding="utf-8"?>
<!-- Generator: Adobe Illustrator 22.0.1, SVG Export Plug-In . SVG Version: 6.00 Build 0)  -->
<svg version="1.1" id="icon" xmlns="http://www.w3.org/2000/svg" xmlns:xlink="http://www.w3.org/1999/xlink" x="0px" y="0px"
	 viewBox="0 0 20 20" enable-background="new 0 0 20 20" xml:space="preserve">
<path d="M14.5,3.6c-0.6,0-1.1-0.5-1.1-1.1s0.5-1.1,1.1-1.1c0.6,0,1.1,0.5,1.1,1.1C15.6,3.1,15.1,3.6,14.5,3.6z"/>
<path d="M14.5,7.4c-0.8,0-1.4-0.6-1.4-1.4s0.6-1.4,1.4-1.4s1.4,0.6,1.4,1.4C15.9,6.8,15.3,7.4,14.5,7.4z"/>
<path d="M14.5,11.9c-0.9,0-1.7-0.7-1.7-1.7s0.7-1.7,1.7-1.7s1.7,0.7,1.7,1.7C16.2,11.1,15.4,11.9,14.5,11.9z"/>
<path d="M9.5,13.7c0-0.4,0.1-0.7,0.4-1c0.6-0.6,1.5-0.6,2.1,0l2.4,2.4l2.5-2.4c0.6-0.6,1.5-0.6,2.1,0c0.6,0.6,0.6,1.5,0,2.1
	l-3.5,3.4c-0.6,0.6-1.5,0.6-2,0L10,14.7C9.7,14.5,9.5,14.1,9.5,13.7L9.5,13.7z"/>
<path d="M5.5,16.4c0.6,0,1.1,0.5,1.1,1.1c0,0.6-0.5,1.1-1.1,1.1s-1.1-0.5-1.1-1.1C4.4,16.9,4.9,16.4,5.5,16.4z"/>
<path d="M5.5,12.6c0.8,0,1.4,0.6,1.4,1.4c0,0.8-0.6,1.4-1.4,1.4S4.1,14.7,4.1,14C4.1,13.2,4.8,12.6,5.5,12.6z"/>
<path d="M5.5,8.1c0.9,0,1.7,0.7,1.7,1.7s-0.7,1.7-1.7,1.7s-1.7-0.7-1.7-1.7C3.8,8.9,4.6,8.1,5.5,8.1z"/>
<path d="M10.5,6.3c0,0.4-0.1,0.7-0.4,1c-0.6,0.6-1.5,0.6-2.1,0L5.5,4.9L3,7.4c-0.6,0.6-1.5,0.6-2.1,0C0.3,6.7,0.4,5.8,1,5.2l3.5-3.4
	c0.6-0.6,1.5-0.6,2,0L10,5.3C10.3,5.5,10.5,5.9,10.5,6.3L10.5,6.3z"/>
</svg>
