<?xml version="1.0" encoding="utf-8"?>
<!-- Generator: Adobe Illustrator 22.0.1, SVG Export Plug-In . SVG Version: 6.00 Build 0)  -->
<svg version="1.1" id="icon" xmlns="http://www.w3.org/2000/svg" xmlns:xlink="http://www.w3.org/1999/xlink" x="0px" y="0px"
	 viewBox="0 0 20 20" enable-background="new 0 0 20 20" xml:space="preserve">
<g>
	<g>
		<g>
			<circle cx="10" cy="14.1" r="0.6"/>
			<path d="M11.7,5.6H8.3C8.1,5.6,7.9,5.8,7.9,6v6.6c0,0.2,0.2,0.3,0.4,0.3h3.5c0.2,0,0.4-0.2,0.4-0.3V6C12.1,5.8,11.9,5.6,11.7,5.6
				z"/>
			<path d="M10,2c-4.4,0-8,3.6-8,8s3.6,8,8,8s8-3.6,8-8S14.4,2,10,2z M13.1,13.9c0,0.6-0.5,1.1-1.1,1.1H8c-0.6,0-1.1-0.5-1.1-1.1V6
				c0-0.6,0.5-1.1,1.1-1.1h4c0.6,0,1.1,0.5,1.1,1.1V13.9z"/>
		</g>
	</g>
</g>
</svg>
