<?xml version="1.0" encoding="utf-8"?>
<!-- Generator: Adobe Illustrator 22.0.1, SVG Export Plug-In . SVG Version: 6.00 Build 0)  -->
<svg version="1.1" id="Layer_1" xmlns="http://www.w3.org/2000/svg" xmlns:xlink="http://www.w3.org/1999/xlink" x="0px" y="0px"
	 viewBox="0 0 20 20" enable-background="new 0 0 20 20" xml:space="preserve">
<g id="learn">
	<path d="M5.8,5.8C3,5.8,1.5,7.9,1.5,10s1.5,4.2,4.2,4.2c1.7,0,3-1.2,4.2-2.6c1.2,1.4,2.5,2.6,4.2,2.6c2.8,0,4.2-2.1,4.2-4.2
		S17,5.8,14.2,5.8c-1.7,0-3,1.2-4.2,2.6C8.8,6.9,7.4,5.8,5.8,5.8z M5.8,7.9c0.9,0,1.9,1,2.8,2.1c-1,1.1-2,2.1-2.8,2.1
		c-1.6,0-2.1-1.1-2.1-2.1S4.2,7.9,5.8,7.9z M14.2,7.9c1.6,0,2.1,1.1,2.1,2.1s-0.6,2.1-2.1,2.1c-0.9,0-1.9-1-2.8-2.1
		C12.4,8.9,13.3,7.9,14.2,7.9z"/>
</g>
</svg>
