<?xml version="1.0" encoding="utf-8"?>
<!-- Generator: Adobe Illustrator 22.0.1, SVG Export Plug-In . SVG Version: 6.00 Build 0)  -->
<svg version="1.1" id="Layer_1" xmlns="http://www.w3.org/2000/svg" xmlns:xlink="http://www.w3.org/1999/xlink" x="0px" y="0px"
	 viewBox="0 0 20 20" enable-background="new 0 0 20 20" xml:space="preserve">
<g id="flame">
	<path d="M9.6,17.7c0,0-5.3,0-5.3-4.5S9,7.4,9,3.9c0-1-0.3-1.4-0.8-1.9c2.5,0.1,4.5,2.6,4.5,6.1c0,0.7-0.3,2.2-0.6,2.5s2-1.4,2-2.9
		c0,0,1.6,1.5,1.6,4.7S12.2,18,10.5,18c1-1,1.7-2,1.7-3.2c0-2.4-2-2.1-2.5-3.3c0-0.1-0.1-0.2-0.1-0.3c0-0.3,0-0.6,0.2-0.9l0.5-0.8
		c0,0-3.1,0.9-3.1,4.2S9.1,17.2,9.6,17.7z"/>
</g>
</svg>
