<?xml version="1.0" encoding="utf-8"?>
<!-- Generator: Adobe Illustrator 22.0.1, SVG Export Plug-In . SVG Version: 6.00 Build 0)  -->
<svg version="1.1" id="Layer_1" xmlns="http://www.w3.org/2000/svg" xmlns:xlink="http://www.w3.org/1999/xlink" x="0px" y="0px"
	 viewBox="0 0 20 20" enable-background="new 0 0 20 20" xml:space="preserve">
<g id="Layer_10">
	<path d="M17.7,9.6l-2.5-2.5C15,6.9,14.8,6.7,15,6.4c0.5-0.5,1.2-0.2,1.9-0.9c0.7-0.7,0.7-1.6,0-2.4c-0.7-0.7-1.6-0.7-2.4,0
		C13.8,3.8,14,4.5,13.6,5c-0.2,0.2-0.5,0-0.7-0.2l-2.5-2.5C10,1.9,10,1.9,9.6,2.3L7.1,4.8C6.9,5,6.7,5.2,6.9,5.5
		C7.4,6,8.1,5.7,8.8,6.4s0.7,1.6,0,2.4c-0.7,0.7-1.6,0.7-2.4,0C5.7,8.1,5.9,7.4,5.5,6.9C5.2,6.7,5,6.9,4.8,7.1L2.3,9.6
		c-0.4,0.4-0.4,0.4,0,0.8l2.5,2.5C5,13.1,5.2,13.3,5,13.6c-0.5,0.5-1.2,0.2-1.9,0.9c-0.7,0.7-0.7,1.6,0,2.4c0.7,0.7,1.6,0.7,2.4,0
		C6.2,16.2,6,15.5,6.4,15c0.2-0.2,0.5,0,0.7,0.2l2.5,2.5c0.4,0.4,0.4,0.4,0.8,0l2.5-2.5c0.2-0.2,0.5-0.5,0.2-0.7
		c-0.5-0.5-1.2-0.2-1.9-0.9c-0.7-0.7-0.7-1.6,0-2.4c0.7-0.7,1.6-0.7,2.4,0c0.7,0.7,0.5,1.4,0.9,1.9c0.2,0.2,0.5,0,0.7-0.2l2.5-2.5
		C18.1,10,18.1,10,17.7,9.6z"/>
</g>
</svg>
