<?xml version="1.0" encoding="utf-8"?>
<!-- Generator: Adobe Illustrator 22.0.1, SVG Export Plug-In . SVG Version: 6.00 Build 0)  -->
<svg version="1.1" id="briefcase" xmlns="http://www.w3.org/2000/svg" xmlns:xlink="http://www.w3.org/1999/xlink" x="0px" y="0px"
	 viewBox="0 0 20 20" enable-background="new 0 0 20 20" xml:space="preserve">
<g>
	<path d="M10,2c-4.4,0-8,3.6-8,8s3.6,8,8,8s8-3.6,8-8C18,5.6,14.4,2,10,2z M14.9,11.8c-0.1,0.7-0.6,1.5-1.3,1.6
		c-2.3,0.2-4.9,0.2-7.3,0c-0.7-0.1-1.2-1-1.3-1.6C5,10.4,5,9.6,5.1,8.2c0.1-0.7,0.5-1.5,1.3-1.6c2.3-0.2,5-0.2,7.3,0
		c0.8,0,1.2,0.9,1.3,1.5C15,9.5,15,10.4,14.9,11.8z M9,12l3-2L9,8V12z"/>
</g>
</svg>
