<?xml version="1.0" encoding="utf-8"?>
<!-- Generator: Adobe Illustrator 22.0.1, SVG Export Plug-In . SVG Version: 6.00 Build 0)  -->
<svg version="1.1" id="icon" xmlns="http://www.w3.org/2000/svg" xmlns:xlink="http://www.w3.org/1999/xlink" x="0px" y="0px"
	 viewBox="0 0 20 20" enable-background="new 0 0 20 20" xml:space="preserve">
<g>
	<path d="M9,12l3-2L9,8V12z M15,2H5C3.3,2,2,3.3,2,5v10c0,1.7,1.3,3,3,3h10c1.7,0,3-1.3,3-3V5C18,3.3,16.7,2,15,2z M14.9,11.8
		c-0.1,0.7-0.6,1.5-1.3,1.6c-2.3,0.2-4.9,0.2-7.3,0c-0.7-0.1-1.2-1-1.3-1.6C5,10.4,5,9.6,5.1,8.2c0.1-0.7,0.5-1.5,1.3-1.6
		c2.3-0.2,5-0.2,7.3,0c0.8,0,1.2,0.9,1.3,1.5C15,9.5,15,10.4,14.9,11.8z"/>
</g>
</svg>
