<?xml version="1.0" encoding="utf-8"?>
<!-- Generator: Adobe Illustrator 22.0.1, SVG Export Plug-In . SVG Version: 6.00 Build 0)  -->
<svg version="1.1" id="briefcase" xmlns="http://www.w3.org/2000/svg" xmlns:xlink="http://www.w3.org/1999/xlink" x="0px" y="0px"
	 viewBox="0 0 20 20" enable-background="new 0 0 20 20" xml:space="preserve">
<g>
	<path d="M10,2c-4.4,0-8,3.6-8,8s3.6,8,8,8s8-3.6,8-8C18,5.6,14.4,2,10,2z M14.8,7.8c-0.5,3-3.5,5.6-4.4,6.2c-0.9,0.6-1.7-0.2-2-0.9
		C8,12.4,6.9,8.6,6.7,8.3C6.4,8,5.6,8.6,5.6,8.6L5.2,8.1c0,0,1.6-1.9,2.9-2.2c1.3-0.3,1.3,2,1.6,3.3c0.3,1.2,0.5,1.9,0.8,1.9
		s0.8-0.7,1.3-1.7c0.6-1,0-2-1.1-1.3C11.1,5.4,15.3,4.8,14.8,7.8z"/>
</g>
</svg>
