<?xml version="1.0" encoding="utf-8"?>
<!-- Generator: Adobe Illustrator 22.0.1, SVG Export Plug-In . SVG Version: 6.00 Build 0)  -->
<svg version="1.1" id="briefcase" xmlns="http://www.w3.org/2000/svg" xmlns:xlink="http://www.w3.org/1999/xlink" x="0px" y="0px"
	 viewBox="0 0 20 20" enable-background="new 0 0 20 20" xml:space="preserve">
<g>
	<path d="M15.1,6.5c0-0.4,0-0.8,0.1-1c0-0.3-0.1-0.5-0.3-0.7c-0.2-0.2-0.4-0.3-0.7-0.3h-11c-0.3,0-0.5,0.1-0.7,0.3
		C2.3,5,2.2,5.3,2.2,5.5c0.1,1.3,0.4,8,2.3,9.7c0.2,0.2,0.4,0.3,0.7,0.3h7c0.2,0,0.5-0.1,0.7-0.3c0.6-0.5,1-1.6,1.4-2.8
		c0.5,0,0.8,0,0.9,0c1.7,0,3.1-1.2,3.1-3C18.2,7.1,16.1,6.5,15.1,6.5z M15.1,11l-0.3,0c-0.1,0-0.1,0-0.2,0c0.2-1,0.3-2.1,0.4-3h0.1
		c0.3,0,1.6,0.1,1.6,1.5C16.7,10.5,15.9,11,15.1,11z"/>
</g>
</svg>
