<?xml version="1.0" encoding="utf-8"?>
<!-- Generator: Adobe Illustrator 22.0.1, SVG Export Plug-In . SVG Version: 6.00 Build 0)  -->
<svg version="1.1" id="briefcase" xmlns="http://www.w3.org/2000/svg" xmlns:xlink="http://www.w3.org/1999/xlink" x="0px" y="0px"
	 viewBox="0 0 20 20" enable-background="new 0 0 20 20" xml:space="preserve">
<g>
	<path d="M15,2H5C3.3,2,2,3.3,2,5v10c0,1.7,1.3,3,3,3h10c1.7,0,3-1.3,3-3V5C18,3.3,16.7,2,15,2z M3.8,10c0-0.9,0.2-1.7,0.5-2.4
		l2.9,7.8C5.3,14.4,3.8,12.4,3.8,10z M10,16c-0.6,0-1.2-0.1-1.7-0.2l1.9-5l1.8,4.9c0,0,0,0.1,0,0.1C11.4,15.9,10.7,16,10,16z
		 M10.8,7.2c0.4,0,0.7-0.1,0.7-0.1c0.3,0,0.3-0.5,0-0.5c0,0-1,0.1-1.6,0.1c-0.6,0-1.6-0.1-1.6-0.1c-0.3,0-0.4,0.5,0,0.5
		c0,0,0.3,0,0.6,0.1l1,2.6l-1.5,3.9L6.2,7.2c0.4,0,0.7-0.1,0.7-0.1c0.3,0,0.3-0.5,0-0.5c0,0-1,0.1-1.6,0.1c-0.1,0-0.3,0-0.4,0
		C6,5.1,7.8,4,10,4c1.6,0,3.1,0.6,4.2,1.6c0,0-0.1,0-0.1,0c-0.6,0-1,0.5-1,1.1c0,0.5,0.3,0.9,0.6,1.4c0.2,0.4,0.4,0.6,0.4,1.4
		c0,0.5-0.2,1.1-0.5,1.9l-0.6,2L10.8,7.2z M13.1,15.2L15,9.9c0.4-0.9,0.5-1.5,0.5-2.1c0-0.2,0-0.4,0-0.6C15.9,8,16.2,9,16.2,10
		C16.2,12.2,14.9,14.1,13.1,15.2z"/>
</g>
</svg>
