<?xml version="1.0" encoding="utf-8"?>
<!-- Generator: Adobe Illustrator 22.0.1, SVG Export Plug-In . SVG Version: 6.00 Build 0)  -->
<svg version="1.1" id="briefcase" xmlns="http://www.w3.org/2000/svg" xmlns:xlink="http://www.w3.org/1999/xlink" x="0px" y="0px"
	 viewBox="0 0 20 20" enable-background="new 0 0 20 20" xml:space="preserve">
<g>
	<path d="M17.2,4l-4.5-2c-0.1,0-0.1,0-0.2,0c-0.1,0-0.1,0-0.2,0L7.5,4L3.2,2C3.1,2,3.1,2,3,2C2.8,2,2.6,2.1,2.4,2.2
		C2.1,2.4,2,2.7,2,3v12c0,0.5,0.3,0.9,0.8,1l4.5,2c0.1,0,0.1,0,0.2,0c0.1,0,0.1,0,0.2,0l4.8-2l4.3,2c0.1,0,0.1,0,0.2,0
		c0.2,0,0.4-0.1,0.6-0.2c0.2-0.2,0.4-0.5,0.4-0.8V5C18,4.5,17.7,4.1,17.2,4z M8,4.8l4-1.6v12l-4,1.6V4.8z M3,3l4,1.8v12L3,15V3z
		 M17,17l-4-1.8v-12L17,5V17z"/>
</g>
</svg>
