<?xml version="1.0" encoding="utf-8"?>
<!-- Generator: Adobe Illustrator 22.0.1, SVG Export Plug-In . SVG Version: 6.00 Build 0)  -->
<svg version="1.1" id="briefcase" xmlns="http://www.w3.org/2000/svg" xmlns:xlink="http://www.w3.org/1999/xlink" x="0px" y="0px"
	 viewBox="0 0 20 20" enable-background="new 0 0 20 20" xml:space="preserve">
<g>
	<path d="M11.2,6.8C13,5.7,14,7.2,13,9c-0.9,1.7-1.8,2.9-2.2,2.9c-0.4,0-0.8-1.2-1.3-3.2C9,6.5,9,2.7,6.8,3.2C4.7,3.6,2,6.8,2,6.8
		l0.6,0.9c0,0,1.3-1.1,1.8-0.5s2.2,6.9,2.7,8.1c0.5,1,1.9,2.4,3.4,1.4c1.5-1,6.5-5.2,7.4-10.3C18.8,1.3,11.9,2.4,11.2,6.8z"/>
</g>
</svg>
